<svg width="880" height="381" viewBox="0 0 880 381" fill="none" xmlns="http://www.w3.org/2000/svg">
<path d="M90.2004 173.6C90.2004 171.6 90.4671 169.8 91.0004 168.2C91.5337 166.733 92.2671 165.267 93.2004 163.8C96.1337 158.733 99.0671 153.667 102 148.6C104.934 143.4 108 138.267 111.2 133.2C115.467 126.4 119.734 119.733 124 113.2C128.4 106.533 132.8 99.7999 137.2 92.9999C137.467 92.4666 137.8 91.9332 138.2 91.3999C138.6 90.8666 139 90.1332 139.4 89.1999H135.4C131.934 89.3332 128.467 89.5332 125 89.7999C121.534 90.0666 118.067 90.1999 114.6 90.1999C111.8 90.3332 109.267 91.2666 107 92.9999C101 98.5999 94.9337 104.067 88.8004 109.4C82.6671 114.6 76.5337 119.867 70.4004 125.2C69.3337 126.133 68.1337 127 66.8004 127.8C65.6004 128.6 64.4004 129.333 63.2004 130C62.8004 130.267 62.4004 130.333 62.0004 130.2C61.6004 130.067 61.0671 130 60.4004 130C60.6671 129.6 60.8004 129.133 60.8004 128.6C60.8004 128.067 60.9337 127.667 61.2004 127.4C62.2671 126.333 63.2671 125.4 64.2004 124.6C65.1337 123.8 66.1337 122.933 67.2004 122C72.4004 117.333 77.6004 112.733 82.8004 108.2C88.0004 103.533 93.2671 98.9332 98.6004 94.3999C99.2671 93.9999 99.8004 93.4666 100.2 92.7999C100.734 92.1332 101.4 91.3999 102.2 90.5999C100.734 90.7332 99.4671 90.8666 98.4004 90.9999C97.3337 90.9999 96.2671 90.9999 95.2004 90.9999C85.2004 91.5332 75.3337 91.9999 65.6004 92.3999C56.0004 92.7999 46.2004 93.2666 36.2004 93.7999C31.4004 94.0666 26.5337 94.3999 21.6004 94.7999C16.6671 95.1999 11.8004 95.5332 7.00039 95.7999C5.40039 95.9332 3.66706 95.7999 1.80039 95.3999C1.53372 95.1332 1.26706 94.7999 1.00039 94.3999C0.733724 93.9999 0.467057 93.5999 0.200391 93.1999C0.0670573 92.9332 0.200391 92.6666 0.600391 92.3999C1.00039 91.9999 1.33372 91.6666 1.60039 91.3999C2.26706 91.1332 3.26706 90.8666 4.60039 90.5999C16.6004 89.6666 28.6004 88.8666 40.6004 88.1999C46.6004 87.6666 52.4671 87.2666 58.2004 86.9999C63.9337 86.5999 69.8004 86.1999 75.8004 85.7999C80.7337 85.5332 85.6004 85.3332 90.4004 85.1999C95.3337 85.0666 100.334 84.9332 105.4 84.7999C107.934 84.7999 110.134 83.8666 112 81.9999C123.334 71.5999 134.534 61.3332 145.6 51.1999C156.8 41.0666 168.067 30.7999 179.4 20.3999C182.467 17.3332 185.467 14.3999 188.4 11.5999C191.467 8.66656 194.534 5.66657 197.6 2.5999C198.267 2.06656 198.8 1.5999 199.2 1.19989C199.6 0.799898 200.134 0.466565 200.8 0.199893C201.2 0.0665619 201.734 0.0665619 202.4 0.199893C203.2 0.199893 203.8 0.333229 204.2 0.5999C204.467 0.866563 204.667 1.33323 204.8 1.99989C205.067 2.66656 205.134 3.33323 205 3.99989C204.867 4.66656 204.534 5.33322 204 5.99989C203.6 6.53322 203.2 7.13322 202.8 7.79989C195.067 18.9999 187.4 30.1332 179.8 41.1999C172.2 52.1332 164.534 63.2666 156.8 74.5999C156 75.6666 155.2 76.9332 154.4 78.3999C153.6 79.7332 152.667 81.1332 151.6 82.5999C155.067 82.9999 158.467 83.3999 161.8 83.7999C165.134 84.0666 168.534 84.9332 172 86.3999C170.934 86.6666 170 86.8666 169.2 86.9999C168.4 87.1332 167.6 87.2666 166.8 87.3999C164 87.6666 161.134 87.9332 158.2 88.1999C155.4 88.4666 152.6 88.7332 149.8 88.9999C147.934 88.9999 146.6 89.6666 145.8 90.9999C138.6 102.6 131.334 114.067 124 125.4C116.8 136.6 109.6 148.067 102.4 159.8C101.334 161.267 100.334 162.733 99.4004 164.2C98.4671 165.8 97.4671 167.333 96.4004 168.8C95.7337 169.867 94.8671 170.8 93.8004 171.6C92.8671 172.4 91.6671 173.067 90.2004 173.6ZM118.8 83.1999C118.8 83.3332 118.934 83.5332 119.2 83.7999C122.667 83.6666 126.134 83.5332 129.6 83.3999C133.067 83.2666 136.534 83.1999 140 83.1999C142.4 83.1999 144.4 82.1332 146 79.9999C150.667 72.7999 155.4 65.7332 160.2 58.7999C165 51.8666 169.734 44.8666 174.4 37.7999C176 35.5332 177.534 33.3332 179 31.1999C180.6 28.9332 182.134 26.6666 183.6 24.3999C183.6 24.2666 183.467 24.1999 183.2 24.1999C172.534 33.9332 161.8 43.7332 151 53.5999C140.334 63.3332 129.6 73.1999 118.8 83.1999ZM187.714 100.2C189.181 98.7332 190.648 97.3332 192.114 95.9999C193.581 94.6666 195.114 93.2666 196.714 91.7999C199.514 88.9999 202.448 86.4666 205.514 84.1999C208.581 81.7999 211.848 79.4666 215.314 77.1999C216.781 76.3999 218.181 75.7332 219.514 75.1999C220.714 74.7999 221.848 74.5999 222.914 74.5999C223.981 74.5999 225.048 75.0666 226.114 75.9999C227.181 76.9332 227.714 77.9332 227.714 78.9999C227.848 80.0666 227.781 81.1999 227.514 82.3999C227.248 83.3332 226.914 84.1999 226.514 84.9999C226.248 85.7999 225.981 86.7332 225.714 87.7999C227.048 88.0666 228.048 88.3332 228.714 88.5999H235.714C236.381 88.5999 236.914 88.5999 237.314 88.5999C237.714 88.5999 238.248 88.6666 238.914 88.7999C240.781 89.1999 241.581 90.3332 241.314 92.1999C240.914 93.5332 239.848 94.1999 238.114 94.1999C236.248 94.0666 234.314 93.9999 232.314 93.9999C230.314 93.9999 228.381 93.8666 226.514 93.5999C224.781 93.4666 223.248 93.6666 221.914 94.1999C220.581 94.5999 219.248 95.5332 217.914 96.9999C216.448 98.9999 214.648 100.8 212.514 102.4C210.381 104 208.048 105.2 205.514 106C200.448 107.6 197.381 105.8 196.314 100.6C196.314 100.333 196.248 100.067 196.114 99.7999C195.981 99.5332 195.848 99.0666 195.714 98.3999C194.248 99.7332 192.848 101.067 191.514 102.4C190.314 103.6 189.114 104.8 187.914 106C186.448 107.467 184.981 108.933 183.514 110.4C182.048 111.867 180.581 113.333 179.114 114.8C178.581 115.2 178.048 115.533 177.514 115.8C176.848 115.933 176.114 115.8 175.314 115.4C174.648 115 174.248 114.467 174.114 113.8C173.981 113.133 174.114 112.467 174.514 111.8C175.181 110.067 175.848 108.467 176.514 107C177.181 105.533 177.981 104 178.914 102.4C180.648 99.3332 182.381 96.3332 184.114 93.3999C185.848 90.3332 187.514 87.2666 189.114 84.1999C189.514 83.3999 189.914 82.7332 190.314 82.1999C190.848 81.5332 190.848 80.6666 190.314 79.5999C190.314 78.6666 190.581 78.0666 191.114 77.7999C193.781 75.9332 195.848 73.7999 197.314 71.3999C198.914 68.8666 200.581 66.3332 202.314 63.7999C206.181 58.0666 210.114 52.4666 214.114 46.9999C218.114 41.5332 222.448 36.1999 227.114 30.9999C228.448 29.5332 229.781 28.1332 231.114 26.7999C232.581 25.4666 234.114 24.0666 235.714 22.5999C236.381 22.0666 236.981 21.5999 237.514 21.1999C238.048 20.7999 238.714 20.4666 239.514 20.1999C240.181 20.0666 240.848 20.0666 241.514 20.1999C242.181 20.3332 242.781 20.5999 243.314 20.9999C244.114 21.2666 244.581 21.7999 244.714 22.5999C244.848 23.3999 244.781 24.1332 244.514 24.7999C243.714 26.5332 242.914 28.1999 242.114 29.7999C241.448 31.3999 240.581 32.9332 239.514 34.3999C236.848 37.7332 234.181 40.9999 231.514 44.1999C228.848 47.2666 226.114 50.3332 223.314 53.3999C220.381 56.7332 217.314 59.9332 214.114 62.9999C211.048 66.0666 207.914 69.1999 204.714 72.3999C202.314 75.0666 200.114 77.8666 198.114 80.7999C196.381 83.4666 194.714 86.1999 193.114 88.9999C191.514 91.7999 189.848 94.5999 188.114 97.3999C187.848 97.7999 187.714 98.1999 187.714 98.5999C187.714 98.9999 187.581 99.3999 187.314 99.7999C187.314 99.9332 187.381 99.9999 187.514 99.9999L187.714 100.2ZM207.714 88.9999C208.914 88.8666 210.114 88.7999 211.314 88.7999C212.648 88.6666 213.981 88.5999 215.314 88.5999C217.448 88.3332 219.114 87.3999 220.314 85.7999C221.648 84.0666 222.181 82.0666 221.914 79.7999C218.981 80.5999 216.381 81.8666 214.114 83.5999C211.848 85.1999 209.714 86.9999 207.714 88.9999ZM212.114 94.5999C209.181 94.4666 206.848 94.9332 205.114 95.9999C203.381 97.0666 202.514 98.5999 202.514 100.6C204.381 100.467 206.181 99.8666 207.914 98.7999C209.648 97.7332 211.048 96.3332 212.114 94.5999ZM227.914 38.9999C227.781 39.1332 227.181 39.7999 226.114 40.9999C225.048 42.1999 223.781 43.6666 222.314 45.3999C220.981 46.9999 219.514 48.7332 217.914 50.5999C216.314 52.4666 214.848 54.2666 213.514 55.9999C212.314 57.5999 211.381 58.9332 210.714 59.9999C210.048 61.0666 209.848 61.6666 210.114 61.7999C211.848 59.9332 214.248 57.3332 217.314 53.9999C220.381 50.5332 223.514 46.9999 226.714 43.3999C229.914 39.7999 232.781 36.5332 235.314 33.5999C237.981 30.6666 239.648 28.6666 240.314 27.5999C241.114 26.5332 240.648 26.7999 238.914 28.3999C237.181 29.8666 233.514 33.3999 227.914 38.9999ZM251.682 125.2C253.015 124.533 254.082 124.067 254.882 123.8C255.815 123.533 256.548 123.067 257.082 122.4C259.748 120.4 262.415 118.333 265.082 116.2C267.748 114.067 270.348 111.867 272.882 109.6C275.815 106.933 278.948 104.2 282.282 101.4C285.615 98.4666 288.682 95.5999 291.482 92.7999C292.948 91.4666 294.215 90.5999 295.282 90.1999C296.482 89.6666 297.282 89.5999 297.682 89.9999C298.215 90.3999 298.215 91.1332 297.682 92.1999C297.282 93.2666 296.282 94.5999 294.682 96.1999C289.215 101.8 283.682 107.267 278.082 112.6C272.615 117.8 266.682 122.6 260.282 127C259.348 127.667 258.348 128.267 257.282 128.8C256.348 129.333 255.348 129.733 254.282 130C252.015 130.8 250.015 130.6 248.282 129.4C246.682 128.2 246.082 126.4 246.482 124C246.748 122.4 247.082 120.867 247.482 119.4C247.882 117.8 248.415 116.267 249.082 114.8C250.948 110.8 252.882 106.733 254.882 102.6C256.882 98.4666 258.882 94.3999 260.882 90.3999C261.148 89.8666 261.348 89.3999 261.482 88.9999C261.615 88.5999 261.682 88.0666 261.682 87.3999C261.015 87.9332 260.415 88.3999 259.882 88.7999C259.482 89.1999 259.015 89.5999 258.482 89.9999C254.082 93.5999 249.748 96.9332 245.482 99.9999C244.815 100.267 244.082 100.6 243.282 101C242.482 101.267 241.682 101.467 240.882 101.6C239.148 101.867 237.748 101.533 236.682 100.6C235.615 99.6666 235.148 98.3999 235.282 96.7999C235.415 95.8666 235.682 94.9332 236.082 93.9999C236.482 93.0666 236.882 92.1332 237.282 91.1999C239.148 88.7999 241.282 86.7999 243.682 85.1999C246.215 83.4666 248.948 82.0666 251.882 80.9999C254.015 80.0666 256.015 79.5999 257.882 79.5999C259.482 79.3332 260.882 78.8666 262.082 78.1999C263.415 77.3999 264.615 76.4666 265.682 75.3999C269.815 70.7332 273.548 65.9332 276.882 60.9999C280.348 55.9332 283.815 50.7999 287.282 45.5999C287.548 45.1999 287.815 44.7332 288.082 44.1999C288.348 43.6666 288.682 43.1999 289.082 42.7999C291.082 40.2666 292.815 39.3999 294.282 40.1999C296.015 41.1332 296.015 43.1999 294.282 46.3999C293.348 47.5999 292.415 48.8666 291.482 50.1999C290.682 51.5332 289.948 52.7999 289.282 53.9999C283.282 63.1999 277.548 72.3999 272.082 81.5999C266.748 90.6666 261.748 99.9999 257.082 109.6C255.882 111.867 254.815 114.2 253.882 116.6C252.948 119 252.215 121.867 251.682 125.2ZM241.882 95.1999C247.215 93.0666 250.882 90.2666 252.882 86.7999C250.615 87.4666 248.482 88.5332 246.482 89.9999C244.482 91.3332 242.948 93.0666 241.882 95.1999ZM335.122 89.9999C335.789 89.7332 336.389 89.5332 336.922 89.3999C337.456 89.1332 338.056 88.8666 338.722 88.5999C340.322 88.3332 341.456 88.7999 342.122 89.9999C342.789 91.5999 342.389 92.7332 340.922 93.3999C335.989 95.9332 330.856 97.8666 325.522 99.1999C320.189 100.533 314.856 101.333 309.522 101.6C307.656 101.733 305.656 101.733 303.522 101.6C301.522 101.467 299.656 101 297.922 100.2C296.322 99.3999 295.122 98.2666 294.322 96.7999C293.522 95.1999 293.456 93.0666 294.122 90.3999C295.056 87.7332 295.922 85.8666 296.722 84.7999C297.522 83.7332 299.056 82.5999 301.322 81.3999C303.722 80.3332 306.189 79.5999 308.722 79.1999C311.389 78.6666 313.922 78.3999 316.322 78.3999C318.589 78.6666 319.922 79.7999 320.322 81.7999C320.722 83.9332 319.989 85.5332 318.122 86.5999C316.789 87.3999 315.389 88.1332 313.922 88.7999C312.456 89.3332 310.922 89.8666 309.322 90.3999C308.122 90.6666 306.856 90.8666 305.522 90.9999C304.189 91.1332 302.856 91.1999 301.522 91.1999C299.522 91.1999 298.389 91.6666 298.122 92.5999C297.989 93.3999 298.389 94.2666 299.322 95.1999C300.656 96.5332 302.989 97.2666 306.322 97.3999C309.656 97.3999 313.189 97.1332 316.922 96.5999C320.789 95.9332 324.389 94.9999 327.722 93.7999C331.189 92.5999 333.656 91.3332 335.122 89.9999ZM314.922 84.1999C315.856 82.9999 315.856 82.3999 314.922 82.3999C314.122 82.2666 312.856 82.4666 311.122 82.9999C309.522 83.5332 307.656 84.3332 305.522 85.3999C303.389 86.4666 301.522 87.5332 299.922 88.5999C301.922 88.8666 304.522 88.5999 307.722 87.7999C310.922 86.8666 313.322 85.6666 314.922 84.1999ZM341.296 119.6C345.562 115.2 349.829 110.533 354.096 105.6C358.496 100.667 362.429 96.4666 365.896 92.9999C369.362 89.3999 371.629 87.9999 372.696 88.7999C373.762 89.5999 372.562 92.2666 369.096 96.7999C365.762 101.2 362.096 105.267 358.096 109C354.229 112.6 350.362 116.267 346.496 120C345.429 121.067 344.296 122 343.096 122.8C341.896 123.6 340.762 124.4 339.696 125.2C339.162 125.467 338.562 125.8 337.896 126.2C337.229 126.467 336.562 126.733 335.896 127C333.362 127.667 331.362 127.4 329.896 126.2C328.429 125 327.562 123.133 327.296 120.6C327.029 118.467 327.229 116.4 327.896 114.4C328.962 109.2 330.562 104.267 332.696 99.5999C334.696 94.9332 336.896 90.2666 339.296 85.5999C340.096 83.7332 341.029 82.0666 342.096 80.5999C342.762 79.3999 343.296 78.2666 343.696 77.1999C344.096 75.9999 343.762 74.8666 342.696 73.7999C343.096 72.9999 343.429 72.4666 343.696 72.1999C346.229 71.1332 348.162 69.5332 349.496 67.3999C350.962 65.2666 352.429 63.1999 353.896 61.1999C357.762 55.7332 361.629 50.3332 365.496 44.9999C369.362 39.5332 373.629 34.4666 378.296 29.7999C379.896 28.1999 381.629 26.6666 383.496 25.1999C384.162 24.2666 385.362 23.4666 387.096 22.7999C388.029 22.3999 388.962 22.1332 389.896 21.9999C390.829 21.8666 391.762 22.1332 392.696 22.7999C393.629 23.5999 394.096 24.5332 394.096 25.5999C394.229 26.5332 394.029 27.4666 393.496 28.3999C392.829 29.8666 392.096 31.3332 391.296 32.7999C390.629 34.1332 389.829 35.4666 388.896 36.7999C384.629 42.3999 380.029 47.6666 375.096 52.5999C370.162 57.3999 365.029 62.1332 359.696 66.7999C358.096 68.2666 356.562 69.7999 355.096 71.3999C353.629 72.9999 352.229 74.7332 350.896 76.5999C348.229 81.3999 345.629 86.1999 343.096 90.9999C340.562 95.6666 338.296 100.533 336.296 105.6C335.762 107.333 335.296 109.067 334.896 110.8C334.362 112.533 333.896 114.267 333.496 116C332.829 118.267 332.762 119.867 333.296 120.8C333.696 121.733 334.362 122.2 335.296 122.2C336.229 122.2 337.229 121.933 338.296 121.4C339.496 120.867 340.496 120.267 341.296 119.6ZM383.696 32.9999C382.496 34.1999 380.562 36.1999 377.896 38.9999C375.362 41.6666 372.762 44.5999 370.096 47.7999C367.429 50.9999 365.029 54.0666 362.896 56.9999C360.762 59.9332 359.562 62.1332 359.296 63.5999C360.362 62.5332 362.029 60.7999 364.296 58.3999C366.696 55.9999 369.162 53.3999 371.696 50.5999C374.362 47.7999 376.896 44.9999 379.296 42.1999C381.829 39.3999 383.829 37.0666 385.296 35.1999C386.762 33.1999 387.429 31.9332 387.296 31.3999C387.296 30.7332 386.096 31.2666 383.696 32.9999ZM404.322 96.3999C402.722 96.2666 401.456 95.8666 400.522 95.1999C399.589 94.5332 398.789 93.6666 398.122 92.5999C397.589 91.5332 397.122 90.3999 396.722 89.1999C396.456 87.9999 396.189 86.7999 395.922 85.5999C395.122 83.7332 393.989 82.7999 392.522 82.7999C391.056 82.7999 389.522 83.2666 387.922 84.1999C386.456 84.9999 385.056 86.0666 383.722 87.3999C382.389 88.7332 381.322 89.7332 380.522 90.3999C375.856 94.2666 372.256 98.5999 369.722 103.4C369.322 104.467 368.722 105.333 367.922 106C366.989 106.667 366.122 107.133 365.322 107.4C364.522 107.533 363.856 107.4 363.322 107C362.656 106.6 362.322 105.8 362.322 104.6C362.322 103.933 362.456 103.4 362.722 103C362.989 102.6 363.256 102.133 363.522 101.6C366.056 97.0666 368.522 92.5332 370.922 87.9999C373.322 83.4666 375.789 78.9332 378.322 74.3999C378.989 73.0666 379.856 71.8666 380.922 70.7999C381.189 70.5332 381.522 70.3332 381.922 70.1999C382.456 70.0666 382.856 70.1332 383.122 70.3999C384.056 70.9332 384.389 71.6666 384.122 72.5999C384.122 73.5332 383.856 74.6666 383.322 75.9999C382.389 77.7332 381.522 79.4666 380.722 81.1999C379.922 82.9332 379.189 84.7332 378.522 86.5999C379.589 85.7999 380.256 85.2666 380.522 84.9999C381.856 83.9332 383.056 82.9332 384.122 81.9999C385.322 80.9332 386.522 79.9999 387.722 79.1999C389.322 77.8666 391.122 77.0666 393.122 76.7999C397.122 75.8666 399.722 77.3332 400.922 81.1999C401.189 82.2666 401.389 83.2666 401.522 84.1999C401.656 85.1332 401.856 86.0666 402.122 86.9999C402.389 88.4666 402.856 89.4666 403.522 89.9999C404.189 90.3999 405.322 90.5332 406.922 90.3999C407.589 90.3999 408.256 90.3999 408.922 90.3999C409.722 90.2666 410.456 90.1999 411.122 90.1999C412.989 90.0666 414.256 90.3332 414.922 90.9999C415.589 91.6666 415.656 92.4666 415.122 93.3999C414.589 94.1999 413.389 94.9332 411.522 95.5999C409.789 96.2666 407.389 96.5332 404.322 96.3999ZM467.891 92.5999C466.424 94.0666 464.158 95.5999 461.091 97.1999C458.158 98.7999 455.158 99.9332 452.091 100.6C449.158 101.267 446.558 101.2 444.291 100.4C442.024 99.5999 440.891 97.4666 440.891 93.9999C440.891 92.9332 440.958 91.8666 441.091 90.7999C441.224 89.5999 441.424 88.3332 441.691 86.9999C438.224 89.1332 434.824 91.2666 431.491 93.3999C428.291 95.3999 424.958 97.3332 421.491 99.1999C420.691 99.8666 419.758 100.267 418.691 100.4C417.758 100.533 416.824 100.667 415.891 100.8C412.958 101.2 410.891 100.333 409.691 98.1999C408.491 96.0666 408.691 93.8666 410.291 91.5999C410.958 90.7999 411.558 90.0666 412.091 89.3999C412.624 88.7332 413.291 88.0666 414.091 87.3999C417.558 84.3332 421.358 82.0666 425.491 80.5999C429.624 79.1332 434.091 78.5999 438.891 78.9999C440.624 79.2666 442.024 78.7332 443.091 77.3999C444.024 76.4666 444.891 75.5332 445.691 74.5999C446.624 73.6666 447.558 72.7332 448.491 71.7999C448.758 71.3999 449.091 70.9999 449.491 70.5999C449.891 70.1999 450.291 69.9332 450.691 69.7999C451.091 69.6666 451.558 69.5999 452.091 69.5999C452.758 69.5999 453.291 69.7332 453.691 69.9999C454.358 70.9332 454.624 71.9332 454.491 72.9999C454.358 74.0666 453.824 75.3999 452.891 76.9999C452.491 77.7999 451.691 79.4666 450.491 81.9999C449.291 84.3999 448.358 86.7999 447.691 89.1999C447.158 91.5999 447.158 93.5999 447.691 95.1999C448.224 96.6666 450.024 96.9332 453.091 95.9999C454.691 95.5999 456.424 94.9332 458.291 93.9999C460.158 92.9332 462.024 91.9332 463.891 90.9999C464.424 90.7332 464.958 90.4666 465.491 90.1999C466.024 89.7999 466.624 89.6666 467.291 89.7999C467.958 90.0666 468.424 90.5332 468.691 91.1999C469.091 91.7332 468.824 92.1999 467.891 92.5999ZM415.291 94.9999C419.158 94.3332 423.224 92.8666 427.491 90.5999C431.758 88.1999 435.224 85.6666 437.891 82.9999C433.891 83.2666 429.691 84.4666 425.291 86.5999C420.891 88.7332 417.558 91.5332 415.291 94.9999ZM497.025 81.9999C495.959 82.5332 495.092 82.9332 494.425 83.1999C493.892 83.4666 493.292 83.7999 492.625 84.1999C489.692 85.9332 486.959 87.9999 484.425 90.3999C481.892 92.7999 479.359 95.1999 476.825 97.5999C474.159 100.133 471.559 102.6 469.025 105C466.492 107.4 463.959 109.867 461.425 112.4C460.892 112.8 460.425 113.267 460.025 113.8C459.492 114.2 458.892 114.467 458.225 114.6C457.559 114.867 456.892 115 456.225 115C455.425 114.867 454.892 114.6 454.625 114.2C454.225 113.933 453.959 113.467 453.825 112.8C453.559 112 453.559 111.333 453.825 110.8C453.959 109.733 454.225 108.8 454.625 108C454.892 107.2 455.292 106.333 455.825 105.4C460.759 96.1999 465.825 87.1332 471.025 78.1999C476.359 69.2666 482.025 60.4666 488.025 51.7999C490.025 48.8666 492.359 45.3999 495.025 41.3999C497.692 37.2666 500.425 33.1332 503.225 28.9999C506.159 24.8666 509.025 20.9332 511.825 17.1999C514.625 13.3332 517.225 10.1332 519.625 7.59989C520.425 6.66656 521.225 6.26657 522.025 6.3999C522.959 6.3999 523.692 6.66656 524.225 7.1999C524.759 7.73323 525.092 8.46656 525.225 9.39989C525.359 10.1999 525.025 10.8666 524.225 11.3999C520.225 16.3332 516.025 21.8666 511.625 27.9999C507.225 33.9999 502.825 40.1999 498.425 46.5999C494.159 52.8666 490.025 59.1332 486.025 65.3999C482.025 71.6666 478.359 77.4666 475.025 82.7999C473.292 85.5999 471.559 88.3999 469.825 91.1999C468.225 93.9999 466.625 96.9332 465.025 99.9999C465.959 99.9999 466.625 99.7999 467.025 99.3999C467.425 98.9999 467.825 98.5332 468.225 97.9999C470.225 96.1332 472.159 94.3332 474.025 92.5999C476.025 90.7332 477.959 88.9332 479.825 87.1999C483.159 84.2666 486.759 81.4666 490.625 78.7999C491.025 78.3999 491.559 78.1332 492.225 77.9999C492.892 77.7332 493.559 77.4666 494.225 77.1999C497.292 76.1332 499.559 76.2666 501.025 77.5999C502.492 78.7999 503.092 81.0666 502.825 84.3999C502.692 85.4666 502.492 86.5332 502.225 87.5999C502.092 88.5332 501.892 89.5332 501.625 90.5999C501.359 91.6666 501.159 92.7332 501.025 93.7999C500.892 94.8666 500.692 96.1332 500.425 97.5999C501.492 97.0666 502.492 96.6666 503.425 96.3999C504.359 96.1332 505.225 95.8666 506.025 95.5999C507.892 94.5332 509.759 93.4666 511.625 92.3999C513.625 91.3332 515.559 90.3332 517.425 89.3999C519.425 88.5999 520.959 88.2666 522.025 88.3999C523.092 88.5332 523.692 88.9332 523.825 89.5999C524.092 90.2666 523.892 91.0666 523.225 91.9999C522.559 92.9332 521.559 93.7332 520.225 94.3999C517.559 95.8666 514.892 97.2666 512.225 98.5999C509.559 99.7999 506.892 101.133 504.225 102.6C503.425 103 502.292 103.2 500.825 103.2C496.959 103.467 495.025 101.667 495.025 97.7999C495.025 96.3332 495.159 94.8666 495.425 93.3999C495.692 91.7999 495.959 90.1999 496.225 88.5999C496.359 87.6666 496.425 86.7332 496.425 85.7999C496.559 84.7332 496.759 83.4666 497.025 81.9999ZM548.708 88.3999C549.775 88.9332 550.708 89.0666 551.508 88.7999C552.308 88.3999 553.108 87.9999 553.908 87.5999C556.708 85.9999 559.442 84.4666 562.108 82.9999C564.775 81.3999 567.508 79.8666 570.308 78.3999C571.375 77.7332 572.508 77.1999 573.708 76.7999C575.042 76.2666 576.308 75.8666 577.508 75.5999C581.642 74.6666 584.042 76.2666 584.708 80.3999C585.242 82.7999 585.308 85.3332 584.908 87.9999C584.642 91.0666 585.108 92.9999 586.308 93.7999C587.642 94.5999 589.642 94.5999 592.308 93.7999C594.175 93.3999 596.175 92.7332 598.308 91.7999C600.442 90.8666 602.375 90.0666 604.108 89.3999C605.708 88.8666 606.842 88.6666 607.508 88.7999C608.308 88.7999 608.842 89.0666 609.108 89.5999C609.508 90.2666 609.508 91.0666 609.108 91.9999C608.842 92.7999 607.908 93.5332 606.308 94.1999C603.775 95.6666 601.175 96.9332 598.508 97.9999C595.975 99.0666 593.242 99.7332 590.308 99.9999C583.242 100.8 579.575 97.5999 579.308 90.3999C579.308 89.5999 579.308 88.8666 579.308 88.1999C579.442 87.5332 579.508 86.7999 579.508 85.9999C579.508 83.1999 579.375 81.1999 579.108 79.9999C578.975 78.7999 577.575 79.1332 574.908 80.9999C572.242 82.4666 569.308 84.2666 566.108 86.3999C563.042 88.5332 560.175 90.3332 557.508 91.7999C555.775 92.9999 553.775 93.7999 551.508 94.1999C547.508 95.3999 544.775 93.8666 543.308 89.5999C542.908 88.5332 542.575 87.5999 542.308 86.7999C542.175 85.9999 541.975 85.3999 541.708 84.9999C541.575 84.5999 541.242 84.5332 540.708 84.7999C540.175 84.9332 539.308 85.3999 538.108 86.1999C535.442 88.1999 532.775 90.6666 530.108 93.5999C527.442 96.5332 524.775 99.0666 522.108 101.2C521.442 101.733 520.842 102.267 520.308 102.8C519.775 103.2 519.175 103.6 518.508 104C517.308 104.4 516.308 104.333 515.508 103.8C514.708 103.133 514.442 102.133 514.708 100.8C514.842 99.8666 515.308 98.7999 516.108 97.5999C517.575 94.5332 519.108 91.5332 520.708 88.5999C522.175 85.6666 523.775 82.6666 525.508 79.5999C525.642 79.1999 525.775 78.7999 525.908 78.3999C526.175 77.8666 526.442 77.4666 526.708 77.1999C527.108 76.9332 527.575 76.6666 528.108 76.3999C528.642 76.1332 529.108 76.1332 529.508 76.3999C530.442 76.6666 530.908 77.4666 530.908 78.7999C530.642 79.4666 530.375 80.1332 530.108 80.7999C529.975 81.3332 529.775 81.9332 529.508 82.5999C529.242 83.1332 528.842 83.8666 528.308 84.7999C527.908 85.7332 527.442 86.7332 526.908 87.7999C526.375 88.7332 525.908 89.7332 525.508 90.7999C525.108 91.7332 524.908 92.4666 524.908 92.9999C525.442 92.5999 526.108 91.9999 526.908 91.1999C527.708 90.3999 528.508 89.5999 529.308 88.7999C530.242 87.8666 531.108 86.9999 531.908 86.1999C532.708 85.2666 533.442 84.5999 534.108 84.1999C534.908 83.5332 535.708 82.9999 536.508 82.5999C537.308 82.1999 538.108 81.7999 538.908 81.3999C543.442 79.5332 546.508 80.9999 548.108 85.7999C548.242 86.1999 548.308 86.6666 548.308 87.1999C548.442 87.5999 548.575 87.9999 548.708 88.3999ZM661.25 92.5999C659.784 94.0666 657.517 95.5999 654.45 97.1999C651.517 98.7999 648.517 99.9332 645.45 100.6C642.517 101.267 639.917 101.2 637.65 100.4C635.384 99.5999 634.25 97.4666 634.25 93.9999C634.25 92.9332 634.317 91.8666 634.45 90.7999C634.584 89.5999 634.784 88.3332 635.05 86.9999C631.584 89.1332 628.184 91.2666 624.85 93.3999C621.65 95.3999 618.317 97.3332 614.85 99.1999C614.05 99.8666 613.117 100.267 612.05 100.4C611.117 100.533 610.184 100.667 609.25 100.8C606.317 101.2 604.25 100.333 603.05 98.1999C601.85 96.0666 602.05 93.8666 603.65 91.5999C604.317 90.7999 604.917 90.0666 605.45 89.3999C605.984 88.7332 606.65 88.0666 607.45 87.3999C610.917 84.3332 614.717 82.0666 618.85 80.5999C622.984 79.1332 627.45 78.5999 632.25 78.9999C633.984 79.2666 635.384 78.7332 636.45 77.3999C637.384 76.4666 638.25 75.5332 639.05 74.5999C639.984 73.6666 640.917 72.7332 641.85 71.7999C642.117 71.3999 642.45 70.9999 642.85 70.5999C643.25 70.1999 643.65 69.9332 644.05 69.7999C644.45 69.6666 644.917 69.5999 645.45 69.5999C646.117 69.5999 646.65 69.7332 647.05 69.9999C647.717 70.9332 647.984 71.9332 647.85 72.9999C647.717 74.0666 647.184 75.3999 646.25 76.9999C645.85 77.7999 645.05 79.4666 643.85 81.9999C642.65 84.3999 641.717 86.7999 641.05 89.1999C640.517 91.5999 640.517 93.5999 641.05 95.1999C641.584 96.6666 643.384 96.9332 646.45 95.9999C648.05 95.5999 649.784 94.9332 651.65 93.9999C653.517 92.9332 655.384 91.9332 657.25 90.9999C657.784 90.7332 658.317 90.4666 658.85 90.1999C659.384 89.7999 659.984 89.6666 660.65 89.7999C661.317 90.0666 661.784 90.5332 662.05 91.1999C662.45 91.7332 662.184 92.1999 661.25 92.5999ZM608.65 94.9999C612.517 94.3332 616.584 92.8666 620.85 90.5999C625.117 88.1999 628.584 85.6666 631.25 82.9999C627.25 83.2666 623.05 84.4666 618.65 86.5999C614.25 88.7332 610.917 91.5332 608.65 94.9999ZM694.585 103.6C698.051 102.267 702.051 100.467 706.585 98.1999C711.118 95.7999 715.118 93.6666 718.585 91.7999C720.718 90.8666 722.385 90.4666 723.585 90.5999C724.918 90.5999 725.718 90.9332 725.985 91.5999C726.251 92.1332 725.985 92.9332 725.185 93.9999C724.518 94.9332 723.185 95.8666 721.185 96.7999C717.051 98.6666 712.851 100.533 708.585 102.4C704.451 104.133 700.251 105.867 695.985 107.6C693.051 108.8 690.318 108.933 687.785 108C685.385 106.8 684.451 104.533 684.985 101.2C685.251 99.8666 685.651 98.7332 686.185 97.7999C686.718 96.7332 687.118 95.5999 687.385 94.3999C687.918 92.9332 688.385 91.5999 688.785 90.3999C689.318 89.1999 689.518 88.2666 689.385 87.5999C689.385 86.7999 688.918 86.3332 687.985 86.1999C687.185 86.0666 685.718 86.3332 683.585 86.9999C681.318 88.1999 679.051 89.4666 676.785 90.7999C674.651 91.9999 672.518 93.2666 670.385 94.5999C668.385 96.0666 666.385 97.5332 664.385 98.9999C662.518 100.467 660.518 101.933 658.385 103.4C658.118 103.667 657.851 104 657.585 104.4C657.185 104.667 656.718 104.933 656.185 105.2C655.518 105.467 654.851 105.733 654.185 106C653.385 106.267 652.585 106 651.785 105.2C651.118 104.533 650.851 103.867 650.985 103.2C650.985 102.4 651.251 101.667 651.785 101C652.851 99.3999 653.918 97.7999 654.985 96.1999C655.918 94.5999 656.918 92.9999 657.985 91.3999C659.318 89.6666 660.585 87.9332 661.785 86.1999C662.985 84.4666 664.185 82.6666 665.385 80.7999C666.051 79.9999 666.518 79.1999 666.785 78.3999C669.051 75.5999 670.718 74.7332 671.785 75.7999C672.985 76.5999 672.585 78.5332 670.585 81.5999C669.651 83.0666 668.785 84.5332 667.985 85.9999C667.185 87.3332 666.251 88.6666 665.185 89.9999C664.785 90.5332 664.051 91.3999 662.985 92.5999C661.918 93.7999 660.985 94.9332 660.185 95.9999C659.385 96.9332 658.985 97.5332 658.985 97.7999C658.851 98.0666 659.585 97.4666 661.185 95.9999C664.118 93.5999 667.185 91.3332 670.385 89.1999C673.718 86.9332 677.051 84.9999 680.385 83.3999C681.718 82.7332 683.185 82.1332 684.785 81.5999C686.518 80.9332 688.051 80.6666 689.385 80.7999C690.851 80.7999 692.051 81.2666 692.985 82.1999C694.051 83.1332 694.718 84.6666 694.985 86.7999C695.251 88.9332 694.851 90.9332 693.785 92.7999C692.718 94.5332 691.718 96.3999 690.785 98.3999C689.851 100.933 689.585 102.733 689.985 103.8C690.385 104.733 691.918 104.667 694.585 103.6ZM90.2004 380.6C90.2004 378.6 90.4671 376.8 91.0004 375.2C91.5337 373.733 92.2671 372.267 93.2004 370.8C96.1337 365.733 99.0671 360.667 102 355.6C104.934 350.4 108 345.267 111.2 340.2C115.467 333.4 119.734 326.733 124 320.2C128.4 313.533 132.8 306.8 137.2 300C137.467 299.467 137.8 298.933 138.2 298.4C138.6 297.867 139 297.133 139.4 296.2H135.4C131.934 296.333 128.467 296.533 125 296.8C121.534 297.067 118.067 297.2 114.6 297.2C111.8 297.333 109.267 298.267 107 300C101 305.6 94.9337 311.067 88.8004 316.4C82.6671 321.6 76.5337 326.867 70.4004 332.2C69.3337 333.133 68.1337 334 66.8004 334.8C65.6004 335.6 64.4004 336.333 63.2004 337C62.8004 337.267 62.4004 337.333 62.0004 337.2C61.6004 337.067 61.0671 337 60.4004 337C60.6671 336.6 60.8004 336.133 60.8004 335.6C60.8004 335.067 60.9337 334.667 61.2004 334.4C62.2671 333.333 63.2671 332.4 64.2004 331.6C65.1337 330.8 66.1337 329.933 67.2004 329C72.4004 324.333 77.6004 319.733 82.8004 315.2C88.0004 310.533 93.2671 305.933 98.6004 301.4C99.2671 301 99.8004 300.467 100.2 299.8C100.734 299.133 101.4 298.4 102.2 297.6C100.734 297.733 99.4671 297.867 98.4004 298C97.3337 298 96.2671 298 95.2004 298C85.2004 298.533 75.3337 299 65.6004 299.4C56.0004 299.8 46.2004 300.267 36.2004 300.8C31.4004 301.067 26.5337 301.4 21.6004 301.8C16.6671 302.2 11.8004 302.533 7.00039 302.8C5.40039 302.933 3.66706 302.8 1.80039 302.4C1.53372 302.133 1.26706 301.8 1.00039 301.4C0.733724 301 0.467057 300.6 0.200391 300.2C0.0670573 299.933 0.200391 299.667 0.600391 299.4C1.00039 299 1.33372 298.667 1.60039 298.4C2.26706 298.133 3.26706 297.867 4.60039 297.6C16.6004 296.667 28.6004 295.867 40.6004 295.2C46.6004 294.667 52.4671 294.267 58.2004 294C63.9337 293.6 69.8004 293.2 75.8004 292.8C80.7337 292.533 85.6004 292.333 90.4004 292.2C95.3337 292.067 100.334 291.933 105.4 291.8C107.934 291.8 110.134 290.867 112 289C123.334 278.6 134.534 268.333 145.6 258.2C156.8 248.067 168.067 237.8 179.4 227.4C182.467 224.333 185.467 221.4 188.4 218.6C191.467 215.667 194.534 212.667 197.6 209.6C198.267 209.067 198.8 208.6 199.2 208.2C199.6 207.8 200.134 207.467 200.8 207.2C201.2 207.067 201.734 207.067 202.4 207.2C203.2 207.2 203.8 207.333 204.2 207.6C204.467 207.867 204.667 208.333 204.8 209C205.067 209.667 205.134 210.333 205 211C204.867 211.667 204.534 212.333 204 213C203.6 213.533 203.2 214.133 202.8 214.8C195.067 226 187.4 237.133 179.8 248.2C172.2 259.133 164.534 270.267 156.8 281.6C156 282.667 155.2 283.933 154.4 285.4C153.6 286.733 152.667 288.133 151.6 289.6C155.067 290 158.467 290.4 161.8 290.8C165.134 291.067 168.534 291.933 172 293.4C170.934 293.667 170 293.867 169.2 294C168.4 294.133 167.6 294.267 166.8 294.4C164 294.667 161.134 294.933 158.2 295.2C155.4 295.467 152.6 295.733 149.8 296C147.934 296 146.6 296.667 145.8 298C138.6 309.6 131.334 321.067 124 332.4C116.8 343.6 109.6 355.067 102.4 366.8C101.334 368.267 100.334 369.733 99.4004 371.2C98.4671 372.8 97.4671 374.333 96.4004 375.8C95.7337 376.867 94.8671 377.8 93.8004 378.6C92.8671 379.4 91.6671 380.067 90.2004 380.6ZM118.8 290.2C118.8 290.333 118.934 290.533 119.2 290.8C122.667 290.667 126.134 290.533 129.6 290.4C133.067 290.267 136.534 290.2 140 290.2C142.4 290.2 144.4 289.133 146 287C150.667 279.8 155.4 272.733 160.2 265.8C165 258.867 169.734 251.867 174.4 244.8C176 242.533 177.534 240.333 179 238.2C180.6 235.933 182.134 233.667 183.6 231.4C183.6 231.267 183.467 231.2 183.2 231.2C172.534 240.933 161.8 250.733 151 260.6C140.334 270.333 129.6 280.2 118.8 290.2ZM190.514 326.6C194.781 322.2 199.048 317.533 203.314 312.6C207.714 307.667 211.648 303.467 215.114 300C218.581 296.4 220.848 295 221.914 295.8C222.981 296.6 221.781 299.267 218.314 303.8C214.981 308.2 211.314 312.267 207.314 316C203.448 319.6 199.581 323.267 195.714 327C194.648 328.067 193.514 329 192.314 329.8C191.114 330.6 189.981 331.4 188.914 332.2C188.381 332.467 187.781 332.8 187.114 333.2C186.448 333.467 185.781 333.733 185.114 334C182.581 334.667 180.581 334.4 179.114 333.2C177.648 332 176.781 330.133 176.514 327.6C176.248 325.467 176.448 323.4 177.114 321.4C178.181 316.2 179.781 311.267 181.914 306.6C183.914 301.933 186.114 297.267 188.514 292.6C189.314 290.733 190.248 289.067 191.314 287.6C191.981 286.4 192.514 285.267 192.914 284.2C193.314 283 192.981 281.867 191.914 280.8C192.314 280 192.648 279.467 192.914 279.2C195.448 278.133 197.381 276.533 198.714 274.4C200.181 272.267 201.648 270.2 203.114 268.2C206.981 262.733 210.848 257.333 214.714 252C218.581 246.533 222.848 241.467 227.514 236.8C229.114 235.2 230.848 233.667 232.714 232.2C233.381 231.267 234.581 230.467 236.314 229.8C237.248 229.4 238.181 229.133 239.114 229C240.048 228.867 240.981 229.133 241.914 229.8C242.848 230.6 243.314 231.533 243.314 232.6C243.448 233.533 243.248 234.467 242.714 235.4C242.048 236.867 241.314 238.333 240.514 239.8C239.848 241.133 239.048 242.467 238.114 243.8C233.848 249.4 229.248 254.667 224.314 259.6C219.381 264.4 214.248 269.133 208.914 273.8C207.314 275.267 205.781 276.8 204.314 278.4C202.848 280 201.448 281.733 200.114 283.6C197.448 288.4 194.848 293.2 192.314 298C189.781 302.667 187.514 307.533 185.514 312.6C184.981 314.333 184.514 316.067 184.114 317.8C183.581 319.533 183.114 321.267 182.714 323C182.048 325.267 181.981 326.867 182.514 327.8C182.914 328.733 183.581 329.2 184.514 329.2C185.448 329.2 186.448 328.933 187.514 328.4C188.714 327.867 189.714 327.267 190.514 326.6ZM232.914 240C231.714 241.2 229.781 243.2 227.114 246C224.581 248.667 221.981 251.6 219.314 254.8C216.648 258 214.248 261.067 212.114 264C209.981 266.933 208.781 269.133 208.514 270.6C209.581 269.533 211.248 267.8 213.514 265.4C215.914 263 218.381 260.4 220.914 257.6C223.581 254.8 226.114 252 228.514 249.2C231.048 246.4 233.048 244.067 234.514 242.2C235.981 240.2 236.648 238.933 236.514 238.4C236.514 237.733 235.314 238.267 232.914 240ZM230.541 296C229.341 296 228.541 295.867 228.141 295.6C227.074 294.667 226.541 293.8 226.541 293C226.674 292.2 227.408 291.6 228.741 291.2H238.141C241.341 291.067 244.541 290.933 247.741 290.8C250.941 290.533 254.208 290.267 257.541 290C258.608 289.867 259.674 289.733 260.741 289.6C261.808 289.467 262.874 289.467 263.941 289.6C265.674 290 266.474 290.733 266.341 291.8C266.208 292.733 265.608 293.6 264.541 294.4C264.274 294.667 263.874 294.8 263.341 294.8C262.808 294.8 262.408 294.8 262.141 294.8C260.541 294.933 258.808 295.067 256.941 295.2C255.208 295.333 253.141 295.467 250.741 295.6C248.341 295.733 245.474 295.867 242.141 296C238.941 296 235.074 296 230.541 296ZM452.674 360.4C451.474 362.4 450.207 364.333 448.874 366.2C447.541 367.933 445.874 369.733 443.874 371.6C443.741 370 443.741 368.533 443.874 367.2C444.141 365.867 444.474 364.467 444.874 363C445.541 361.4 446.207 359.8 446.874 358.2C447.674 356.6 448.474 355.067 449.274 353.6C457.674 338.667 465.007 325.6 471.274 314.4C477.674 303.2 483.207 293.467 487.874 285.2C492.674 276.8 496.674 269.8 499.874 264.2C503.207 258.6 505.941 254 508.074 250.4C510.341 246.667 512.074 243.8 513.274 241.8C514.607 239.667 515.607 238 516.274 236.8C516.674 236.133 517.007 235.533 517.274 235C517.541 234.467 517.807 233.933 518.074 233.4C517.807 233.133 517.607 233 517.474 233C515.874 234.333 514.274 235.667 512.674 237C511.207 238.2 509.741 239.533 508.274 241C505.207 243.667 501.741 247 497.874 251C494.007 255 490.074 259.133 486.074 263.4C482.074 267.667 478.141 271.867 474.274 276C470.541 280 467.207 283.333 464.274 286C458.941 290.8 453.674 295.667 448.474 300.6C443.274 305.533 438.007 310.4 432.674 315.2C427.474 320.133 422.207 325.067 416.874 330C411.674 334.8 406.34 339.6 400.874 344.4C400.207 345.067 399.407 345.667 398.474 346.2C397.674 346.733 396.874 347.333 396.074 348C395.141 348.533 394.141 348.933 393.074 349.2C392.14 349.467 391.14 349.2 390.074 348.4C389.007 347.6 388.474 346.733 388.474 345.8C388.474 344.733 388.741 343.667 389.274 342.6C390.34 339.267 391.674 336.267 393.274 333.6C397.807 326 402.274 318.467 406.674 311C411.207 303.4 415.807 295.8 420.474 288.2C424.607 281.4 428.807 274.6 433.074 267.8C437.474 261 441.807 254.2 446.074 247.4C446.341 246.733 446.674 246.133 447.074 245.6C447.474 244.933 448.007 244.067 448.674 243C448.007 243.267 447.474 243.4 447.074 243.4C446.807 243.4 446.541 243.533 446.274 243.8C438.941 249.8 431.407 255.467 423.674 260.8C415.94 266 407.94 271.067 399.674 276C391.14 280.933 382.607 285.8 374.074 290.6C365.674 295.4 357.074 300.2 348.274 305C341.607 308.733 334.874 312.267 328.074 315.6C321.407 318.8 314.474 321.733 307.274 324.4C304.207 325.467 301.074 326.467 297.874 327.4C294.674 328.333 291.54 329.267 288.474 330.2C287.807 330.467 287.074 330.667 286.274 330.8C285.474 330.933 284.607 330.867 283.674 330.6C283.407 330.467 283.007 330.267 282.474 330C282.074 329.733 281.674 329.467 281.274 329.2C281.54 328.667 281.807 328.2 282.074 327.8C282.34 327.267 282.74 326.933 283.274 326.8C283.94 326.533 284.607 326.333 285.274 326.2C285.94 326.067 286.674 325.933 287.474 325.8C293.874 323.933 300.074 321.8 306.074 319.4C312.074 317 318.074 314.333 324.074 311.4C339.407 303.8 354.474 295.867 369.274 287.6C384.074 279.2 398.741 270.267 413.274 260.8C420.607 256.133 427.674 251.2 434.474 246C441.407 240.667 448.274 235.133 455.074 229.4C456.007 228.467 457.274 227.533 458.874 226.6C459.407 226.2 460.007 226 460.674 226C461.341 226 461.941 226.333 462.474 227C463.141 227.933 463.341 229.067 463.074 230.4L458.474 238.4C450.074 251.6 441.807 264.733 433.674 277.8C425.674 290.867 417.541 304.067 409.274 317.4C407.14 320.733 405.141 324 403.274 327.2C401.407 330.4 399.541 333.667 397.674 337C397.407 337.267 397.274 337.6 397.274 338C397.274 338.4 397.207 338.733 397.074 339L397.674 339.8C399.541 337.933 401.407 336.267 403.274 334.8C405.274 333.2 407.274 331.533 409.274 329.8C415.274 324.067 421.274 318.267 427.274 312.4C433.274 306.533 439.474 300.8 445.874 295.2C450.941 290.667 456.474 285.4 462.474 279.4C468.607 273.4 474.741 267.267 480.874 261C487.141 254.6 493.274 248.467 499.274 242.6C505.407 236.6 511.074 231.267 516.274 226.6C516.941 225.933 517.674 225.333 518.474 224.8C519.407 224.267 520.274 223.667 521.074 223C521.874 222.6 522.741 222.333 523.674 222.2C524.607 221.933 525.541 222.133 526.474 222.8C527.274 223.467 527.674 224.333 527.674 225.4C527.807 226.333 527.674 227.267 527.274 228.2C526.207 230.467 525.074 232.733 523.874 235C522.674 237.267 521.407 239.533 520.074 241.8C515.807 249.267 511.341 256.867 506.674 264.6C502.007 272.333 496.94 280.867 491.474 290.2C486.141 299.4 480.274 309.733 473.874 321.2C467.474 332.533 460.407 345.6 452.674 360.4ZM545.279 297C545.945 296.733 546.545 296.533 547.079 296.4C547.612 296.133 548.212 295.867 548.879 295.6C550.479 295.333 551.612 295.8 552.279 297C552.945 298.6 552.545 299.733 551.079 300.4C546.145 302.933 541.012 304.867 535.679 306.2C530.345 307.533 525.012 308.333 519.679 308.6C517.812 308.733 515.812 308.733 513.679 308.6C511.679 308.467 509.812 308 508.079 307.2C506.479 306.4 505.279 305.267 504.479 303.8C503.679 302.2 503.612 300.067 504.279 297.4C505.212 294.733 506.079 292.867 506.879 291.8C507.679 290.733 509.212 289.6 511.479 288.4C513.879 287.333 516.345 286.6 518.879 286.2C521.545 285.667 524.079 285.4 526.479 285.4C528.745 285.667 530.079 286.8 530.479 288.8C530.879 290.933 530.145 292.533 528.279 293.6C526.945 294.4 525.545 295.133 524.079 295.8C522.612 296.333 521.079 296.867 519.479 297.4C518.279 297.667 517.012 297.867 515.679 298C514.345 298.133 513.012 298.2 511.679 298.2C509.679 298.2 508.545 298.667 508.279 299.6C508.145 300.4 508.545 301.267 509.479 302.2C510.812 303.533 513.145 304.267 516.479 304.4C519.812 304.4 523.345 304.133 527.079 303.6C530.945 302.933 534.545 302 537.879 300.8C541.345 299.6 543.812 298.333 545.279 297ZM525.079 291.2C526.012 290 526.012 289.4 525.079 289.4C524.279 289.267 523.012 289.467 521.279 290C519.679 290.533 517.812 291.333 515.679 292.4C513.545 293.467 511.679 294.533 510.079 295.6C512.079 295.867 514.679 295.6 517.879 294.8C521.079 293.867 523.479 292.667 525.079 291.2ZM565.052 296.2C566.252 295 567.119 293.6 567.652 292C568.319 290.267 568.519 288.8 568.252 287.6C567.985 286.267 567.252 285.4 566.052 285C564.852 284.467 563.119 284.867 560.852 286.2C559.785 286.867 558.652 287.733 557.452 288.8C556.252 289.867 555.252 291.067 554.452 292.4C553.652 293.6 553.185 294.867 553.052 296.2C553.052 297.533 553.652 298.667 554.852 299.6C556.185 300.933 557.585 302.333 559.052 303.8C560.519 305.133 561.985 306.4 563.452 307.6C567.319 305.867 571.119 304.333 574.852 303C578.585 301.667 582.385 299.867 586.252 297.6C587.852 296.667 589.319 296.133 590.652 296C591.319 296 591.985 296.133 592.652 296.4C593.319 296.533 593.785 297.067 594.052 298C593.652 299.2 592.985 300.067 592.052 300.6C591.119 301 590.185 301.333 589.252 301.6C587.385 302.4 585.185 303.267 582.652 304.2C580.119 305 577.585 305.933 575.052 307C572.519 307.933 570.185 309 568.052 310.2C565.919 311.4 564.385 312.667 563.452 314C562.385 316.133 560.585 318.067 558.052 319.8C555.252 321.667 552.319 323.267 549.252 324.6C546.319 325.8 543.119 326.6 539.652 327C537.919 327.133 536.052 327 534.052 326.6C533.519 326.467 533.119 326.133 532.852 325.6C532.452 325.067 532.185 324.467 532.052 323.8C531.785 323.133 531.919 322.667 532.452 322.4C532.985 322.133 533.519 321.8 534.052 321.4C537.252 318.733 540.719 316.4 544.452 314.4C548.052 312.267 552.185 310.467 556.852 309C556.452 308.6 555.985 308.267 555.452 308C555.052 307.6 554.652 307.133 554.252 306.6C553.319 305.8 552.385 305 551.452 304.2C550.652 303.4 549.919 302.533 549.252 301.6C547.785 299.733 547.052 297.8 547.052 295.8C547.052 293.667 547.852 291.667 549.452 289.8C551.719 287.4 554.185 285.4 556.852 283.8C559.652 282.2 562.719 281.2 566.052 280.8C570.185 280.133 572.852 281.267 574.052 284.2C574.852 285.667 575.052 287.133 574.652 288.6C574.252 290.067 573.519 291.4 572.452 292.6C571.385 293.933 570.385 294.933 569.452 295.6C568.519 296.133 567.319 296.733 565.852 297.4C565.719 297.133 565.585 296.933 565.452 296.8C565.319 296.667 565.185 296.467 565.052 296.2ZM541.252 320.8C540.319 322.4 540.319 323.267 541.252 323.4C542.185 323.533 543.585 323.2 545.452 322.4C547.185 321.6 549.185 320.467 551.452 319C553.719 317.4 555.785 315.733 557.652 314C555.119 314 552.185 314.6 548.852 315.8C545.519 316.867 542.985 318.533 541.252 320.8ZM623.002 289C621.935 289.533 621.069 289.933 620.402 290.2C619.869 290.467 619.269 290.8 618.602 291.2C615.669 292.933 612.935 295 610.402 297.4C607.869 299.8 605.335 302.2 602.802 304.6C600.135 307.133 597.535 309.6 595.002 312C592.469 314.4 589.935 316.867 587.402 319.4C586.869 319.8 586.402 320.267 586.002 320.8C585.469 321.2 584.869 321.467 584.202 321.6C583.535 321.867 582.869 322 582.202 322C581.402 321.867 580.869 321.6 580.602 321.2C580.202 320.933 579.935 320.467 579.802 319.8C579.535 319 579.535 318.333 579.802 317.8C579.935 316.733 580.202 315.8 580.602 315C580.869 314.2 581.269 313.333 581.802 312.4C586.735 303.2 591.802 294.133 597.002 285.2C602.335 276.267 608.002 267.467 614.002 258.8C616.002 255.867 618.335 252.4 621.002 248.4C623.669 244.267 626.402 240.133 629.202 236C632.135 231.867 635.002 227.933 637.802 224.2C640.602 220.333 643.202 217.133 645.602 214.6C646.402 213.667 647.202 213.267 648.002 213.4C648.935 213.4 649.669 213.667 650.202 214.2C650.735 214.733 651.069 215.467 651.202 216.4C651.335 217.2 651.002 217.867 650.202 218.4C646.202 223.333 642.002 228.867 637.602 235C633.202 241 628.802 247.2 624.402 253.6C620.135 259.867 616.002 266.133 612.002 272.4C608.002 278.667 604.335 284.467 601.002 289.8C599.269 292.6 597.535 295.4 595.802 298.2C594.202 301 592.602 303.933 591.002 307C591.935 307 592.602 306.8 593.002 306.4C593.402 306 593.802 305.533 594.202 305C596.202 303.133 598.135 301.333 600.002 299.6C602.002 297.733 603.935 295.933 605.802 294.2C609.135 291.267 612.735 288.467 616.602 285.8C617.002 285.4 617.535 285.133 618.202 285C618.869 284.733 619.535 284.467 620.202 284.2C623.269 283.133 625.535 283.267 627.002 284.6C628.469 285.8 629.069 288.067 628.802 291.4C628.669 292.467 628.469 293.533 628.202 294.6C628.069 295.533 627.869 296.533 627.602 297.6C627.335 298.667 627.135 299.733 627.002 300.8C626.869 301.867 626.669 303.133 626.402 304.6C627.469 304.067 628.469 303.667 629.402 303.4C630.335 303.133 631.202 302.867 632.002 302.6C633.869 301.533 635.735 300.467 637.602 299.4C639.602 298.333 641.535 297.333 643.402 296.4C645.402 295.6 646.935 295.267 648.002 295.4C649.069 295.533 649.669 295.933 649.802 296.6C650.069 297.267 649.869 298.067 649.202 299C648.535 299.933 647.535 300.733 646.202 301.4C643.535 302.867 640.869 304.267 638.202 305.6C635.535 306.8 632.869 308.133 630.202 309.6C629.402 310 628.269 310.2 626.802 310.2C622.935 310.467 621.002 308.667 621.002 304.8C621.002 303.333 621.135 301.867 621.402 300.4C621.669 298.8 621.935 297.2 622.202 295.6C622.335 294.667 622.402 293.733 622.402 292.8C622.535 291.733 622.735 290.467 623.002 289ZM698.885 293.2C694.885 297.2 691.018 300.867 687.285 304.2C685.418 306.067 683.485 307.867 681.485 309.6C679.618 311.333 677.551 313.067 675.285 314.8C674.618 315.467 673.818 316.067 672.885 316.6C672.085 317 671.151 317.4 670.085 317.8C668.218 318.067 666.751 317.8 665.685 317C664.751 316.2 664.418 314.867 664.685 313C664.951 311.933 665.218 310.8 665.485 309.6C665.751 308.267 666.085 307.067 666.485 306C666.751 305.333 666.951 304.667 667.085 304C667.218 303.333 667.285 302.533 667.285 301.6C666.085 302.667 664.818 303.8 663.485 305C662.285 306.067 661.085 307.133 659.885 308.2C656.418 311.267 652.885 314 649.285 316.4C648.218 317.467 646.485 318.2 644.085 318.6C642.618 318.867 641.351 318.6 640.285 317.8C639.218 316.867 638.818 315.6 639.085 314C639.218 313.2 639.351 312.4 639.485 311.6C639.618 310.8 639.818 310.067 640.085 309.4C641.151 307.133 642.285 304.8 643.485 302.4C644.685 299.867 645.885 297.4 647.085 295C648.951 291.933 650.751 288.933 652.485 286C654.218 282.933 656.018 279.867 657.885 276.8C658.285 276 658.751 275.333 659.285 274.8C659.951 274.133 660.818 274 661.885 274.4C663.485 274.933 663.618 276.6 662.285 279.4C658.285 286.2 654.285 293.2 650.285 300.4C649.351 302.133 648.418 303.933 647.485 305.8C646.685 307.667 645.751 309.667 644.685 311.8C645.751 312.067 646.618 312 647.285 311.6C647.951 311.067 648.551 310.533 649.085 310C651.885 307.6 654.685 305.2 657.485 302.8C660.285 300.267 663.085 297.733 665.885 295.2C667.085 294.133 668.218 293.133 669.285 292.2C670.351 291.267 671.418 290.267 672.485 289.2C672.618 289.067 672.751 288.933 672.885 288.8C673.151 288.533 673.351 288.267 673.485 288C675.885 286.933 677.685 286.8 678.885 287.6C680.085 288.8 680.285 290.533 679.485 292.8C678.818 293.867 678.218 294.933 677.685 296C677.151 297.067 676.618 298.2 676.085 299.4C675.285 300.867 674.485 302.4 673.685 304C673.018 305.6 672.285 307.2 671.485 308.8C671.485 308.8 671.485 309.467 671.485 310.8C672.418 310.133 673.218 309.6 673.885 309.2C674.551 308.667 675.218 308.067 675.885 307.4C679.485 303.8 683.018 300.2 686.485 296.6C689.951 293 693.485 289.4 697.085 285.8C697.351 285.4 697.618 284.933 697.885 284.4C698.285 283.867 698.818 283.533 699.485 283.4C700.018 283.133 700.618 282.933 701.285 282.8C701.951 282.533 702.485 282.533 702.885 282.8C703.418 283.067 703.818 283.533 704.085 284.2C704.485 284.733 704.618 285.267 704.485 285.8C704.485 286.867 704.418 288 704.285 289.2C704.151 290.267 704.551 291.2 705.485 292C707.351 294 709.285 295.2 711.285 295.6C713.418 296 715.685 296.067 718.085 295.8C718.751 295.667 719.285 295.933 719.685 296.6C720.085 297.267 720.151 298 719.885 298.8C719.751 299.6 719.418 300.133 718.885 300.4C718.351 300.533 717.685 300.6 716.885 300.6C713.285 300.733 709.951 300.4 706.885 299.6C703.818 298.667 701.151 296.533 698.885 293.2ZM772.188 299.6C770.721 301.067 768.455 302.6 765.388 304.2C762.455 305.8 759.455 306.933 756.388 307.6C753.455 308.267 750.855 308.2 748.588 307.4C746.321 306.6 745.188 304.467 745.188 301C745.188 299.933 745.255 298.867 745.388 297.8C745.521 296.6 745.721 295.333 745.988 294C742.521 296.133 739.121 298.267 735.788 300.4C732.588 302.4 729.255 304.333 725.788 306.2C724.988 306.867 724.055 307.267 722.988 307.4C722.055 307.533 721.121 307.667 720.188 307.8C717.255 308.2 715.188 307.333 713.988 305.2C712.788 303.067 712.988 300.867 714.588 298.6C715.255 297.8 715.855 297.067 716.388 296.4C716.921 295.733 717.588 295.067 718.388 294.4C721.855 291.333 725.655 289.067 729.788 287.6C733.921 286.133 738.388 285.6 743.188 286C744.921 286.267 746.321 285.733 747.388 284.4C748.321 283.467 749.188 282.533 749.988 281.6C750.921 280.667 751.855 279.733 752.788 278.8C753.055 278.4 753.388 278 753.788 277.6C754.188 277.2 754.588 276.933 754.988 276.8C755.388 276.667 755.855 276.6 756.388 276.6C757.055 276.6 757.588 276.733 757.988 277C758.655 277.933 758.921 278.933 758.788 280C758.655 281.067 758.121 282.4 757.188 284C756.788 284.8 755.988 286.467 754.788 289C753.588 291.4 752.655 293.8 751.988 296.2C751.455 298.6 751.455 300.6 751.988 302.2C752.521 303.667 754.321 303.933 757.388 303C758.988 302.6 760.721 301.933 762.588 301C764.455 299.933 766.321 298.933 768.188 298C768.721 297.733 769.255 297.467 769.788 297.2C770.321 296.8 770.921 296.667 771.588 296.8C772.255 297.067 772.721 297.533 772.988 298.2C773.388 298.733 773.121 299.2 772.188 299.6ZM719.588 302C723.455 301.333 727.521 299.867 731.788 297.6C736.055 295.2 739.521 292.667 742.188 290C738.188 290.267 733.988 291.467 729.588 293.6C725.188 295.733 721.855 298.533 719.588 302ZM783.322 332.2C784.656 331.533 785.722 331.067 786.522 330.8C787.456 330.533 788.189 330.067 788.722 329.4C791.389 327.4 794.056 325.333 796.722 323.2C799.389 321.067 801.989 318.867 804.522 316.6C807.456 313.933 810.589 311.2 813.922 308.4C817.256 305.467 820.322 302.6 823.122 299.8C824.589 298.467 825.856 297.6 826.922 297.2C828.122 296.667 828.922 296.6 829.322 297C829.856 297.4 829.856 298.133 829.322 299.2C828.922 300.267 827.922 301.6 826.322 303.2C820.856 308.8 815.322 314.267 809.722 319.6C804.256 324.8 798.322 329.6 791.922 334C790.989 334.667 789.989 335.267 788.922 335.8C787.989 336.333 786.989 336.733 785.922 337C783.656 337.8 781.656 337.6 779.922 336.4C778.322 335.2 777.722 333.4 778.122 331C778.389 329.4 778.722 327.867 779.122 326.4C779.522 324.8 780.056 323.267 780.722 321.8C782.589 317.8 784.522 313.733 786.522 309.6C788.522 305.467 790.522 301.4 792.522 297.4C792.789 296.867 792.989 296.4 793.122 296C793.256 295.6 793.322 295.067 793.322 294.4C792.656 294.933 792.056 295.4 791.522 295.8C791.122 296.2 790.656 296.6 790.122 297C785.722 300.6 781.389 303.933 777.122 307C776.456 307.267 775.722 307.6 774.922 308C774.122 308.267 773.322 308.467 772.522 308.6C770.789 308.867 769.389 308.533 768.322 307.6C767.256 306.667 766.789 305.4 766.922 303.8C767.056 302.867 767.322 301.933 767.722 301C768.122 300.067 768.522 299.133 768.922 298.2C770.789 295.8 772.922 293.8 775.322 292.2C777.856 290.467 780.589 289.067 783.522 288C785.656 287.067 787.656 286.6 789.522 286.6C791.122 286.333 792.522 285.867 793.722 285.2C795.056 284.4 796.256 283.467 797.322 282.4C801.456 277.733 805.189 272.933 808.522 268C811.989 262.933 815.456 257.8 818.922 252.6C819.189 252.2 819.456 251.733 819.722 251.2C819.989 250.667 820.322 250.2 820.722 249.8C822.722 247.267 824.456 246.4 825.922 247.2C827.656 248.133 827.656 250.2 825.922 253.4C824.989 254.6 824.056 255.867 823.122 257.2C822.322 258.533 821.589 259.8 820.922 261C814.922 270.2 809.189 279.4 803.722 288.6C798.389 297.667 793.389 307 788.722 316.6C787.522 318.867 786.456 321.2 785.522 323.6C784.589 326 783.856 328.867 783.322 332.2ZM773.522 302.2C778.856 300.067 782.522 297.267 784.522 293.8C782.256 294.467 780.122 295.533 778.122 297C776.122 298.333 774.589 300.067 773.522 302.2ZM853.363 307.6C854.296 307.2 855.03 306.867 855.563 306.6C856.096 306.333 856.63 306 857.163 305.6C859.696 304.267 862.163 302.933 864.563 301.6C866.963 300.267 869.43 298.933 871.963 297.6C873.296 296.8 874.696 296.4 876.163 296.4C876.696 296.4 877.23 296.6 877.763 297C878.296 297.4 878.696 297.733 878.963 298C879.63 299.2 879.096 300.333 877.363 301.4C876.03 302.2 874.63 302.933 873.163 303.6C871.696 304.267 870.23 305.067 868.763 306C865.296 308.267 861.83 310.533 858.363 312.8C854.896 314.933 851.43 317.133 847.963 319.4C845.83 320.867 844.096 322.6 842.763 324.6C841.43 326.6 840.03 328.6 838.563 330.6C834.43 337 830.163 343.133 825.763 349C821.23 354.867 816.296 360.533 810.963 366C808.696 368.133 806.363 370 803.963 371.6C803.163 372.267 802.363 372.8 801.563 373.2C800.63 373.733 799.63 374.133 798.563 374.4C797.096 374.667 795.83 374.4 794.763 373.6C793.696 372.8 793.296 371.533 793.563 369.8C793.563 368.2 794.03 366.6 794.963 365C796.83 361.133 799.096 357.6 801.763 354.4C804.296 351.2 807.096 348.133 810.163 345.2C814.696 340.933 819.23 336.733 823.763 332.6C828.296 328.333 832.896 324.067 837.563 319.8C838.23 319 838.896 318.2 839.563 317.4C840.363 316.467 841.096 315.533 841.763 314.6C844.03 311.133 846.23 307.6 848.363 304C850.496 300.267 852.696 296.533 854.963 292.8C853.896 292.8 853.03 293.067 852.363 293.6C851.83 294 851.296 294.4 850.763 294.8C848.363 296.533 845.896 298.267 843.363 300C840.963 301.6 838.296 302.933 835.363 304C834.43 304.667 833.563 305 832.763 305C830.096 305.4 828.03 304.933 826.563 303.6C825.096 302.133 824.696 300.067 825.363 297.4C825.763 296.067 826.23 294.8 826.763 293.6C827.296 292.4 827.896 291.2 828.563 290C829.63 288.133 830.696 286.333 831.763 284.6C832.963 282.867 834.163 281.133 835.363 279.4C836.03 278.6 836.763 278.067 837.563 277.8C838.363 277.4 839.296 277.733 840.363 278.8C840.096 279.333 839.83 279.933 839.563 280.6C839.43 281.133 839.096 281.667 838.563 282.2C837.496 284.467 836.363 286.6 835.163 288.6C833.963 290.6 832.763 292.667 831.563 294.8C831.296 295.467 831.03 296.2 830.763 297C830.63 297.8 830.296 298.733 829.763 299.8C830.83 299.533 831.696 299.4 832.363 299.4C833.163 299.4 833.896 299.267 834.563 299C836.43 297.933 838.23 296.867 839.963 295.8C841.696 294.733 843.43 293.6 845.163 292.4C847.43 290.667 849.563 288.933 851.563 287.2C853.563 285.467 855.696 283.667 857.963 281.8C858.763 281 859.63 280.4 860.563 280C861.496 279.467 862.63 279.533 863.963 280.2C865.83 281.267 865.896 283.467 864.163 286.8C862.696 289.733 861.163 292.667 859.563 295.6C857.963 298.533 856.43 301.533 854.963 304.6C854.696 304.867 854.43 305.2 854.163 305.6C854.03 306 853.763 306.667 853.363 307.6ZM824.763 339.6C822.496 341.467 820.163 343.6 817.763 346C815.23 348.4 812.896 350.8 810.763 353.2C808.63 355.6 806.763 357.867 805.163 360C803.563 362.133 802.496 363.867 801.963 365.2C803.296 364.4 805.096 363 807.363 361C809.496 359 811.696 356.733 813.963 354.2C816.096 351.667 818.163 349.133 820.163 346.6C822.163 343.933 823.696 341.6 824.763 339.6Z" fill="white"/>
</svg>
