<svg fill="none" height="100%" width="100%" viewBox="0 0 1000 1000" xmlns:xlink="http://www.w3.org/1999/xlink" xmlns="http://www.w3.org/2000/svg"><defs><clipPath id="i0"><rect height="1000" width="1000" y="0" x="0" /></clipPath><g id="i1" /><filter id="i2"><feColorMatrix values="0 0 0 0 1 0 0 0 0 1 0 0 0 0 1 0 0 0 1 0" type="matrix" /></filter><mask height="20000" width="20000" y="-10000" x="-10000" maskContentUnits="userSpaceOnUse" maskUnits="userSpaceOnUse" style="mask-type: alpha" mask-type="alpha" id="i3"><g filter="url(#i2)" transform="matrix(1,0,0,1,498.236,706.222)"><g id="i4"><path fill="#6e6e6e" d="M-106.768,66.41C-106.768,66.41,-112.576,-69.312,-112.576,-69.312C-113.182,-83.48,-101.688,-95.21,-87.512,-94.892C-87.512,-94.892,88.606,-90.954,88.606,-90.954C103.314,-90.626,114.428,-77.518,112.348,-62.954C112.348,-62.954,92.822,73.828,92.822,73.828C91.052,86.224,80.232,95.3,67.718,94.884C67.718,94.884,-83.064,89.886,-83.064,89.886C-95.888,89.46,-106.218,79.228,-106.768,66.41C-106.768,66.41,-106.768,66.41,-106.768,66.41Z" /></g></g></mask><g id="i5"><g mask="url(#i3)" opacity="0.5" visibility="hidden" id="i6"><animate repeatCount="indefinite" begin="0s" calcMode="discrete" dur="4.183s" values="hidden; visible; hidden; hidden; hidden" keyTimes="0; 0.282977; 0.788937; 0.99992; 1" attributeName="visibility" /><g><g transform="translate(209.62,0)"><animateTransform repeatCount="indefinite" type="translate" attributeName="transform" dur="4.183s" begin="0s" calcMode="spline" values="209.62 0; 209.62 0; 819.62 0; 819.62 0" keyTimes="0; 0.282868; 0.561753; 1" keySplines="0 0 1 1; 0.167 0.167 0 1; 0 0 1 1" fill="freeze" /><g transform="translate(0,731.455)"><g transform="rotate(28) translate(196.628,-235.722)"><g id="i7" transform="matrix(1,0,0,1,-236.282,235.722)"><rect height="412.094" width="77.268" y="-206.047" x="-38.634" fill="#fef3dd" /></g><g id="i7" transform="matrix(0.589,0,0,1,-141.097,235.722)"><rect height="412.094" width="77.268" y="-206.047" x="-38.634" fill="#fef3dd" /></g></g></g></g></g></g><g display="none" transform="matrix(1,0,0,1,498.236,706.222)" visibility="hidden" id="i6"><animate repeatCount="indefinite" begin="0s" calcMode="discrete" dur="4.183s" values="hidden; visible; hidden; hidden; hidden" keyTimes="0; 0.282977; 0.788937; 0.99992; 1" attributeName="visibility" /><g id="i4"><path fill="#6e6e6e" d="M-106.768,66.41C-106.768,66.41,-112.576,-69.312,-112.576,-69.312C-113.182,-83.48,-101.688,-95.21,-87.512,-94.892C-87.512,-94.892,88.606,-90.954,88.606,-90.954C103.314,-90.626,114.428,-77.518,112.348,-62.954C112.348,-62.954,92.822,73.828,92.822,73.828C91.052,86.224,80.232,95.3,67.718,94.884C67.718,94.884,-83.064,89.886,-83.064,89.886C-95.888,89.46,-106.218,79.228,-106.768,66.41C-106.768,66.41,-106.768,66.41,-106.768,66.41Z" /></g></g></g></defs><g transform="matrix(1,0,0,1,500,832.476)" id="i8"><g id="i9"><path fill="#6e6e6e" d="M0,-22.646C214.164,-22.646,387.778,-12.507,387.778,0C387.778,12.507,214.164,22.646,0,22.646C-214.164,22.646,-387.778,12.507,-387.778,0C-387.778,-12.507,-214.164,-22.646,0,-22.646Z" /></g></g><g transform="matrix(1,0,0,1,190.37,-94.065)" id="i1"><g clip-path="url(#i0)" /></g><g transform="matrix(1,0,0,1,0,0)" id="i10"><g id="i4" transform="matrix(1,0,0,1,340.791,435.695)"><g id="i4"><path stroke-linejoin="round" stroke-linecap="round" stroke-width="1.501" stroke="#6e6e6e" d="M9.409,-17.978C10.663,-13.065,9.917,-5.457,7.262,-4.015C2.167,-1.249,-5.308,-11.024,-3.022,-13.425C0.85,-17.494,8.61,-5.957,7.77,0.674C7.431,3.348,6.194,5.627,3.665,6.63C-4.452,9.85,-12.486,-3.572,-9.279,-7.199C-7.203,-9.545,0.505,-1.725,0.657,4.77C0.851,13.108,-7.664,16.663,-9.802,17.978" /></g></g><g id="i4" transform="matrix(1,0,0,1,212.723,311.618)"><g id="i4"><path stroke-linejoin="round" stroke-linecap="round" stroke-width="1.492" stroke="#6e6e6e" d="M-21.996,-21.251C-26.253,5.974,-10.989,10.744,-5.281,4.71C1.151,-2.094,0.581,-18.597,-2.086,-18.816C-8.346,-19.333,-11.833,6.578,2.646,12.727C17.128,18.874,24.752,-10.082,18.15,-14.684C13.877,-17.665,6.858,-1.694,9.317,8.826C10.957,15.849,18.767,19.963,22.736,21.251" /></g></g><g id="i4" transform="matrix(1,0,0,1,256.063,429.721)"><path fill="#e95420" d="M103.821,15.529C103.821,15.529,72.657,21.189,72.657,21.189C72.657,21.189,44.363,-133.235,44.363,-133.235C44.363,-133.235,-15.765,-122.313,-15.765,-122.313C-15.765,-122.313,-113.743,51.685,-113.743,51.685C-113.743,51.685,-103.223,109.101,-103.223,109.101C-103.223,109.101,22.451,86.273,22.451,86.273C22.451,86.273,31.055,133.235,31.055,133.235C31.055,133.235,91.183,122.313,91.183,122.313C91.183,122.313,82.579,75.353,82.579,75.353C82.579,75.353,113.743,69.691,113.743,69.691C113.743,69.691,103.821,15.529,103.821,15.529C103.821,15.529,103.821,15.529,103.821,15.529ZM-53.875,44.175C-53.875,44.175,-1.957,-46.959,-1.957,-46.959C-1.957,-46.959,12.531,32.113,12.531,32.113C12.531,32.113,-53.875,44.175,-53.875,44.175C-53.875,44.175,-53.875,44.175,-53.875,44.175Z" /></g></g><g transform="matrix(1,0,0,1,500,500)" id="i11"><g transform="matrix(1,0,0,1,3.255,-163.176)" id="i12"><g id="i4"><path fill="#e95420" d="M107.605,-50.84C106.441,-61.508,104.311,-70.986,101.211,-79.276C98.113,-87.566,93.451,-95.692,87.231,-103.654C81.011,-111.616,72.541,-118.528,61.823,-124.386C51.103,-130.242,36.955,-134.32,19.377,-136.61C-17.207,-141.376,-45.725,-134.88,-66.187,-117.13C-86.651,-99.376,-100.113,-65.368,-106.583,-15.108C-109.215,5.334,-109.867,24.23,-108.537,41.582C-107.211,58.932,-104.027,72.888,-98.981,83.448C-92.079,98.286,-82.311,110.136,-69.683,118.992C-57.057,127.85,-39.759,133.712,-17.783,136.574C21.411,141.68,50.455,134.158,69.355,114C88.251,93.846,100.789,59.776,106.965,11.798C109.723,-9.608,109.935,-30.486,107.605,-50.84Z" /></g></g></g><g transform="matrix(1,0,0,1,500,500)" id="i11"><g transform="matrix(1,0,0,1,3.256,-163.177)" id="i12"><g id="i4"><path fill="#6e6e6e" d="M0.276,116.043C-4.534,115.879,-9.652,115.445,-14.938,114.755C-33.246,112.371,-47.412,107.737,-57.044,100.979C-66.548,94.315,-73.738,85.547,-79.028,74.167C-79.028,74.167,-79.126,73.961,-79.126,73.961C-82.972,65.915,-85.484,54.455,-86.596,39.905C-87.806,24.129,-87.188,6.567,-84.76,-12.299C-77.622,-67.741,-62.878,-90.873,-51.766,-100.513C-38.81,-111.753,-21.324,-116.833,1.694,-116.045C6.41,-115.883,11.404,-115.461,16.536,-114.793C31.308,-112.869,42.996,-109.601,51.276,-105.079C59.294,-100.697,65.56,-95.659,69.896,-90.109C74.704,-83.957,78.306,-77.719,80.604,-71.571C83.05,-65.031,84.776,-57.253,85.736,-48.455C87.866,-29.837,87.664,-10.549,85.15,8.989C79.604,52.067,68.892,82.335,53.31,98.951C41.752,111.281,24.406,116.873,0.282,116.045C0.278,116.043,0.276,116.043,0.276,116.043C0.276,116.043,0.276,116.043,0.276,116.043Z" /></g></g></g><g transform="matrix(1,0,0,1,500,500)" id="i11"><g id="i12"><g transform="translate(-7.498,-218.94)"><g transform="rotate(-180)"><animateTransform repeatCount="indefinite" type="rotate" attributeName="transform" dur="4.183s" begin="0s" calcMode="spline" values="-180; 0; 0" keyTimes="0; 0.996016; 1" keySplines="0 0 1 1; 0 0 1 1" fill="freeze" /><g id="i4"><path fill="#e95420" d="M50.17,5.514C50.17,5.514,50.43,-2.062,50.43,-2.062C50.43,-2.062,45.78,-3.582,45.78,-3.582C45.588,-6.17,45.156,-8.726,44.54,-11.19C44.54,-11.19,48.482,-14.096,48.482,-14.096C48.482,-14.096,45.804,-21.212,45.804,-21.212C45.804,-21.212,40.928,-20.82,40.928,-20.82C39.766,-23.12,38.4,-25.31,36.87,-27.364C36.87,-27.364,39.396,-31.58,39.396,-31.58C39.396,-31.58,34.202,-37.12,34.202,-37.12C34.202,-37.12,29.842,-34.888,29.842,-34.888C27.878,-36.556,25.808,-38.068,23.592,-39.404C23.592,-39.404,24.298,-44.244,24.298,-44.244C24.298,-44.244,17.382,-47.384,17.382,-47.384C17.382,-47.384,14.214,-43.67,14.214,-43.67C11.8,-44.454,9.298,-45.04,6.71,-45.428C6.71,-45.428,5.532,-50.172,5.532,-50.172C5.532,-50.172,-2.064,-50.432,-2.064,-50.432C-2.064,-50.432,-3.564,-45.78,-3.564,-45.78C-6.174,-45.57,-8.708,-45.156,-11.17,-44.54C-11.17,-44.54,-14.098,-48.462,-14.098,-48.462C-14.098,-48.462,-21.214,-45.804,-21.214,-45.804C-21.214,-45.804,-20.82,-40.928,-20.82,-40.928C-23.122,-39.746,-25.31,-38.382,-27.364,-36.85C-27.364,-36.85,-31.56,-39.374,-31.56,-39.374C-31.56,-39.374,-37.12,-34.202,-37.12,-34.202C-37.12,-34.202,-34.888,-29.824,-34.888,-29.824C-36.556,-27.88,-38.068,-25.79,-39.386,-23.574C-39.386,-23.574,-44.224,-24.3,-44.224,-24.3C-44.224,-24.3,-47.382,-17.384,-47.382,-17.384C-47.382,-17.384,-43.648,-14.214,-43.648,-14.214C-44.432,-11.798,-45.038,-9.278,-45.406,-6.71C-45.406,-6.71,-50.17,-5.514,-50.17,-5.514C-50.17,-5.514,-50.43,2.062,-50.43,2.062C-50.43,2.062,-45.76,3.584,-45.76,3.584C-45.57,6.192,-45.136,8.728,-44.52,11.19C-44.52,11.19,-48.462,14.096,-48.462,14.096C-48.462,14.096,-45.784,21.212,-45.784,21.212C-45.784,21.212,-40.908,20.818,-40.908,20.818C-39.746,23.118,-38.38,25.308,-36.85,27.362C-36.85,27.362,-39.376,31.578,-39.376,31.578C-39.376,31.578,-34.182,37.12,-34.182,37.12C-34.182,37.12,-29.824,34.888,-29.824,34.888C-27.88,36.556,-25.79,38.068,-23.576,39.406C-23.576,39.406,-24.302,44.244,-24.302,44.244C-24.302,44.244,-17.386,47.384,-17.386,47.384C-17.386,47.384,-14.196,43.67,-14.196,43.67C-11.782,44.454,-9.28,45.04,-6.692,45.428C-6.692,45.428,-5.514,50.172,-5.514,50.172C-5.514,50.172,2.082,50.432,2.082,50.432C2.082,50.432,3.582,45.78,3.582,45.78C6.19,45.57,8.726,45.156,11.188,44.54C11.188,44.54,14.096,48.462,14.096,48.462C14.096,48.462,21.212,45.804,21.212,45.804C21.212,45.804,20.838,40.928,20.838,40.928C23.14,39.746,25.308,38.38,27.382,36.848C27.382,36.848,31.578,39.374,31.578,39.374C31.578,39.374,37.138,34.2,37.138,34.2C37.138,34.2,34.906,29.822,34.906,29.822C36.574,27.878,38.086,25.788,39.402,23.572C39.402,23.572,44.24,24.298,44.24,24.298C44.24,24.298,47.398,17.382,47.398,17.382C47.398,17.382,43.664,14.212,43.664,14.212C44.448,11.798,45.054,9.296,45.422,6.708C45.422,6.708,50.17,5.514,50.17,5.514C50.17,5.514,50.17,5.514,50.17,5.514ZM-1.02,30.056C-17.61,29.488,-30.602,15.574,-30.034,-1.016C-29.464,-17.626,-15.552,-30.616,1.038,-30.048C17.628,-29.48,30.62,-15.568,30.05,1.042C29.484,17.632,15.57,30.624,-1.02,30.056C-1.02,30.056,-1.02,30.056,-1.02,30.056Z" /></g></g></g></g></g><g transform="matrix(1,0,0,1,500,500)" id="i11"><g id="i12"><g transform="translate(40.677,-80.545)"><g transform="rotate(-180)"><animateTransform repeatCount="indefinite" type="rotate" attributeName="transform" dur="4.183s" begin="0s" calcMode="spline" values="-180; 0; 0" keyTimes="0; 0.996016; 1" keySplines="0 0 1 1; 0 0 1 1" fill="freeze" /><g transform="translate(-540.677,-419.455)"><g id="i4" transform="matrix(1,0,0,1,540.677,419.455)"><g id="i4"><path fill="#721f00" d="M33.567,6.275C33.567,6.275,34.117,1.169,34.117,1.169C34.117,1.169,31.047,-0.083,31.047,-0.083C31.037,-1.839,30.885,-3.577,30.593,-5.271C30.593,-5.271,33.393,-7.049,33.393,-7.049C33.393,-7.049,31.971,-11.989,31.971,-11.989C31.971,-11.989,28.647,-11.963,28.647,-11.963C27.977,-13.577,27.187,-15.127,26.255,-16.585C26.255,-16.585,28.151,-19.305,28.151,-19.305C28.151,-19.305,24.941,-23.301,24.941,-23.301C24.941,-23.301,21.879,-22.025,21.879,-22.025C20.657,-23.237,19.337,-24.359,17.897,-25.367C17.897,-25.367,18.641,-28.619,18.641,-28.619C18.641,-28.619,14.139,-31.089,14.139,-31.089C14.139,-31.089,11.787,-28.713,11.787,-28.713C10.173,-29.401,8.505,-29.903,6.833,-30.287C6.833,-30.287,6.267,-33.559,6.267,-33.559C6.267,-33.559,1.161,-34.131,1.161,-34.131C1.161,-34.131,-0.091,-31.061,-0.091,-31.061C-1.847,-31.051,-3.561,-30.875,-5.279,-30.583C-5.279,-30.583,-7.055,-33.407,-7.055,-33.407C-7.055,-33.407,-11.997,-31.961,-11.997,-31.961C-11.997,-31.961,-11.971,-28.637,-11.971,-28.637C-13.563,-27.965,-15.111,-27.175,-16.593,-26.243C-16.593,-26.243,-19.313,-28.163,-19.313,-28.163C-19.313,-28.163,-23.307,-24.953,-23.307,-24.953C-23.307,-24.953,-22.031,-21.891,-22.031,-21.891C-23.221,-20.667,-24.365,-19.349,-25.375,-17.909C-25.375,-17.909,-28.605,-18.629,-28.605,-18.629C-28.605,-18.629,-31.075,-14.127,-31.075,-14.127C-31.075,-14.127,-28.721,-11.799,-28.721,-11.799C-29.385,-10.159,-29.909,-8.515,-30.295,-6.821C-30.295,-6.821,-33.567,-6.279,-33.567,-6.279C-33.567,-6.279,-34.117,-1.173,-34.117,-1.173C-34.117,-1.173,-31.049,0.103,-31.049,0.103C-31.061,1.835,-30.887,3.573,-30.593,5.269C-30.593,5.269,-33.415,7.045,-33.415,7.045C-33.415,7.045,-31.969,11.987,-31.969,11.987C-31.969,11.987,-28.645,11.983,-28.645,11.983C-27.973,13.575,-27.185,15.123,-26.251,16.583C-26.251,16.583,-28.169,19.303,-28.169,19.303C-28.169,19.303,-24.959,23.321,-24.959,23.321C-24.959,23.321,-21.871,22.023,-21.871,22.023C-20.649,23.235,-19.331,24.357,-17.889,25.367C-17.889,25.367,-18.633,28.619,-18.633,28.619C-18.633,28.619,-14.131,31.091,-14.131,31.091C-14.131,31.091,-11.781,28.737,-11.781,28.737C-10.165,29.401,-8.497,29.903,-6.825,30.287C-6.825,30.287,-6.259,33.559,-6.259,33.559C-6.259,33.559,-1.153,34.131,-1.153,34.131C-1.153,34.131,0.099,31.061,0.099,31.061C1.831,31.051,3.569,30.877,5.287,30.585C5.287,30.585,7.063,33.407,7.063,33.407C7.063,33.407,11.981,31.961,11.981,31.961C11.981,31.961,11.979,28.637,11.979,28.637C13.571,27.965,15.119,27.177,16.601,26.245C16.601,26.245,19.297,28.163,19.297,28.163C19.297,28.163,23.315,24.955,23.315,24.955C23.315,24.955,22.015,21.891,22.015,21.891C23.227,20.669,24.349,19.349,25.381,17.911C25.381,17.911,28.609,18.629,28.609,18.629C28.609,18.629,31.079,14.127,31.079,14.127C31.079,14.127,28.725,11.799,28.725,11.799C29.389,10.161,29.891,8.515,30.275,6.843C30.275,6.843,33.567,6.275,33.567,6.275C33.567,6.275,33.567,6.275,33.567,6.275ZM7.821,4.293C5.449,8.611,0.011,10.205,-4.307,7.833C-8.625,5.461,-10.195,0.025,-7.823,-4.293C-5.451,-8.611,-0.039,-10.181,4.281,-7.811C8.599,-5.439,10.191,-0.025,7.821,4.293Z" /></g></g></g></g></g></g></g><g transform="matrix(1,0,0,1,500,500)" id="i11"><g id="i12"><g transform="translate(63.608,-155.699)"><g transform="rotate(180)"><animateTransform repeatCount="indefinite" type="rotate" attributeName="transform" dur="4.183s" begin="0s" calcMode="spline" values="180; 0; 0" keyTimes="0; 0.996016; 1" keySplines="0 0 1 1; 0 0 1 1" fill="freeze" /><g transform="translate(-63.608,155.699)"><g id="i4"><path fill="#fef3dd" d="M102.58,-160.702C102.58,-160.702,96.618,-164.82,96.618,-164.82C96.616,-164.824,96.616,-164.83,96.614,-164.834C96.024,-167,95.21,-169.084,94.216,-171.044C94.216,-171.044,95.744,-177.038,95.744,-177.038C95.744,-177.038,87.096,-186.3,87.096,-186.3C87.096,-186.3,81.01,-185.186,81.01,-185.186C79.126,-186.312,77.102,-187.264,74.984,-188C74.98,-188.002,74.974,-188.002,74.968,-188.004C74.968,-188.004,71.268,-194.236,71.268,-194.236C71.268,-194.236,58.606,-194.67,58.606,-194.67C58.606,-194.67,54.488,-188.708,54.488,-188.708C54.48,-188.706,54.472,-188.704,54.464,-188.702C52.3,-188.112,50.218,-187.3,48.26,-186.308C48.26,-186.308,42.268,-187.836,42.268,-187.836C42.268,-187.836,33.008,-179.188,33.008,-179.188C33.008,-179.188,34.12,-173.112,34.12,-173.112C34.118,-173.11,34.118,-173.108,34.116,-173.106C32.968,-171.2,32.036,-169.176,31.3,-167.056C31.3,-167.056,25.07,-163.356,25.07,-163.356C25.07,-163.356,24.636,-150.694,24.636,-150.694C24.636,-150.694,30.602,-146.574,30.602,-146.574C31.19,-144.394,31.98,-142.314,32.992,-140.338C32.992,-140.338,32.992,-140.336,32.992,-140.336C32.992,-140.336,31.47,-134.36,31.47,-134.36C31.47,-134.36,40.116,-125.1,40.116,-125.1C40.116,-125.1,46.166,-126.206,46.166,-126.206C48.074,-125.078,50.1,-124.122,52.246,-123.386C52.248,-123.384,52.25,-123.384,52.252,-123.384C52.252,-123.384,55.946,-117.162,55.946,-117.162C55.946,-117.162,68.608,-116.728,68.608,-116.728C68.608,-116.728,72.722,-122.686,72.722,-122.686C74.91,-123.274,76.996,-124.088,78.978,-125.084C78.978,-125.084,78.98,-125.084,78.98,-125.086C78.98,-125.086,84.944,-123.566,84.944,-123.566C84.944,-123.566,94.204,-132.212,94.204,-132.212C94.204,-132.212,93.092,-138.288,93.092,-138.288C94.24,-140.194,95.172,-142.22,95.908,-144.338C95.908,-144.338,95.908,-144.34,95.908,-144.34C95.908,-144.34,102.14,-148.042,102.14,-148.042C102.14,-148.042,102.58,-160.702,102.58,-160.702C102.58,-160.702,102.58,-160.702,102.58,-160.702ZM63.118,-141.452C55.246,-141.722,49.098,-148.33,49.366,-156.178C49.636,-164.05,56.222,-170.198,64.092,-169.93C71.964,-169.66,78.112,-163.074,77.844,-155.204C77.576,-147.356,70.988,-141.182,63.118,-141.452Z" /></g></g></g></g></g></g><g transform="matrix(1,0,0,1,500,500)" id="i11"><g id="i12"><g transform="translate(-30.718,-121.059)"><g transform="rotate(180)"><animateTransform repeatCount="indefinite" type="rotate" attributeName="transform" dur="4.183s" begin="0s" calcMode="spline" values="180; 0; 0" keyTimes="0; 0.996016; 1" keySplines="0 0 1 1; 0 0 1 1" fill="freeze" /><g transform="translate(30.718,121.059)"><g id="i4"><path stroke-linejoin="round" stroke-width="1.5" stroke="#fef3dd" d="M-40.588,-87.946C-40.726,-87.946,-40.864,-87.916,-40.992,-87.864C-40.992,-87.864,-47.36,-85.056,-47.36,-85.056C-47.36,-85.056,-57.4,-91.712,-57.4,-91.712C-57.4,-91.712,-57.294,-98.656,-57.294,-98.656C-57.29,-98.892,-57.374,-99.126,-57.524,-99.31C-58.932,-101.024,-60.176,-102.908,-61.212,-104.892C-61.318,-105.126,-61.514,-105.312,-61.758,-105.406C-61.758,-105.406,-67.21,-107.52,-67.21,-107.52C-67.21,-107.52,-69.602,-119.322,-69.602,-119.322C-69.602,-119.322,-65.406,-123.392,-65.406,-123.392C-65.232,-123.562,-65.126,-123.786,-65.106,-124.026C-64.918,-126.264,-64.504,-128.494,-63.94,-130.492C-63.808,-130.758,-63.8,-131.07,-63.92,-131.344C-63.92,-131.344,-66.724,-137.702,-66.724,-137.702C-66.724,-137.702,-60.07,-147.742,-60.07,-147.742C-60.07,-147.742,-53.13,-147.634,-53.13,-147.634C-52.906,-147.608,-52.662,-147.714,-52.48,-147.862C-50.736,-149.284,-48.84,-150.532,-46.848,-151.57C-46.632,-151.682,-46.464,-151.87,-46.376,-152.096C-46.376,-152.096,-44.262,-157.55,-44.262,-157.55C-44.262,-157.55,-32.458,-159.944,-32.458,-159.944C-32.458,-159.944,-28.392,-155.75,-28.392,-155.75C-28.224,-155.58,-28,-155.472,-27.758,-155.452C-25.516,-155.266,-23.28,-154.85,-21.112,-154.22C-20.886,-154.156,-20.646,-154.172,-20.43,-154.266C-20.43,-154.266,-14.078,-157.066,-14.078,-157.066C-14.078,-157.066,-4.038,-150.412,-4.038,-150.412C-4.038,-150.412,-4.144,-143.464,-4.144,-143.464C-4.148,-143.228,-4.066,-142.998,-3.916,-142.814C-2.5,-141.088,-1.254,-139.202,-0.214,-137.202C-0.102,-136.98,0.088,-136.808,0.32,-136.718C0.32,-136.718,5.774,-134.602,5.774,-134.602C5.774,-134.602,8.166,-122.8,8.166,-122.8C8.166,-122.8,3.968,-118.728,3.968,-118.728C3.794,-118.558,3.688,-118.334,3.668,-118.092C3.482,-115.88,3.068,-113.652,2.436,-111.47C2.37,-111.244,2.386,-111,2.48,-110.786C2.48,-110.786,5.288,-104.418,5.288,-104.418C5.288,-104.418,-1.366,-94.378,-1.366,-94.378C-1.366,-94.378,-8.308,-94.484,-8.308,-94.484C-8.566,-94.51,-8.772,-94.408,-8.954,-94.26C-10.684,-92.848,-12.578,-91.604,-14.584,-90.558C-14.798,-90.446,-14.966,-90.258,-15.054,-90.032C-15.054,-90.032,-17.174,-84.568,-17.174,-84.568C-17.174,-84.568,-28.978,-82.174,-28.978,-82.174C-28.978,-82.174,-33.05,-86.372,-33.05,-86.372C-33.218,-86.546,-33.442,-86.652,-33.684,-86.672C-35.938,-86.86,-38.164,-87.276,-40.306,-87.904C-40.398,-87.932,-40.494,-87.946,-40.588,-87.946C-40.588,-87.946,-40.588,-87.946,-40.588,-87.946ZM-30.752,-94.416C-22.11,-94.416,-13.622,-98.604,-8.5,-106.33C-0.384,-118.578,-3.744,-135.152,-15.988,-143.278C-28.23,-151.392,-44.806,-148.028,-52.936,-135.778C-56.866,-129.844,-58.254,-122.734,-56.836,-115.758C-55.418,-108.784,-51.37,-102.776,-45.438,-98.844C-40.916,-95.848,-35.808,-94.416,-30.752,-94.416C-30.752,-94.416,-30.752,-94.416,-30.752,-94.416Z" /></g></g></g></g></g></g><g transform="matrix(1,0,0,1,500,500)" id="i11"><g id="i4"><path fill="#e95420" d="M110.86,-214.016C113.19,-193.662,112.978,-172.784,110.22,-151.378C104.044,-103.4,91.506,-69.33,72.61,-49.176C53.71,-29.018,24.666,-21.496,-14.528,-26.602C-36.504,-29.464,-53.802,-35.326,-66.428,-44.184C-79.056,-53.04,-88.824,-64.89,-95.726,-79.728C-100.772,-90.288,-103.956,-104.244,-105.282,-121.594C-106.612,-138.946,-105.96,-157.842,-103.328,-178.284C-96.858,-228.544,-83.396,-262.552,-62.932,-280.306C-42.47,-298.056,-13.952,-304.552,22.632,-299.786C40.21,-297.496,54.358,-293.418,65.078,-287.562C75.796,-281.704,84.266,-274.792,90.486,-266.83C96.706,-258.868,101.368,-250.742,104.466,-242.452C107.566,-234.162,109.696,-224.684,110.86,-214.016ZM3.532,-47.134C3.532,-47.134,3.534,-47.134,3.538,-47.132C27.662,-46.304,45.008,-51.896,56.566,-64.226C72.148,-80.842,82.86,-111.11,88.406,-154.188C90.92,-173.726,91.122,-193.014,88.992,-211.632C88.032,-220.43,86.306,-228.208,83.86,-234.748C81.562,-240.896,77.96,-247.134,73.152,-253.286C68.816,-258.836,62.55,-263.874,54.532,-268.256C46.252,-272.778,34.564,-276.046,19.792,-277.97C14.66,-278.638,9.666,-279.06,4.95,-279.222C-18.068,-280.01,-35.554,-274.93,-48.51,-263.69C-59.622,-254.05,-74.366,-230.918,-81.504,-175.476C-83.932,-156.61,-84.55,-139.048,-83.34,-123.272C-82.228,-108.722,-79.716,-97.262,-75.87,-89.216C-75.87,-89.216,-75.772,-89.01,-75.772,-89.01C-70.482,-77.63,-63.292,-68.862,-53.788,-62.198C-44.156,-55.44,-29.99,-50.806,-11.682,-48.422C-6.396,-47.732,-1.278,-47.298,3.532,-47.134C3.532,-47.134,3.532,-47.134,3.532,-47.134Z" /></g></g><g transform="matrix(1,0,0,1,174.576,821.876)" id="i6"><g id="i4"><path stroke-linejoin="round" stroke-linecap="round" stroke-width="1.501" stroke="#6e6e6e" d="M-24.905,2.402C-21.319,9.965,-8.255,14.569,-4.475,10.554C0.113,5.679,-12.985,-10.573,-15.031,-7.449C-17.257,-4.049,-8.102,10.388,1.359,9.541C12.932,8.505,-0.916,-12.36,-3.639,-10.88C-7.026,-9.039,2.219,8.969,11.722,7.253C21.225,5.535,15.395,-11.896,10.457,-12.037C7.26,-12.129,9.031,-1.567,13.834,3.006C17.039,6.06,22.434,5.544,24.905,4.869" /></g></g><g transform="matrix(1,0,0,1,519.78,552.28)" id="i12"><g id="i4"><path fill="#6e6e6e" d="M-74.876,57.402C-72.098,12.596,-77.208,-68.852,7.012,-58.07C97.282,-46.514,71.456,59.042,71.456,59.042C71.456,59.042,-74.876,57.402,-74.876,57.402C-74.876,57.402,-74.876,57.402,-74.876,57.402Z" /></g></g><g transform="matrix(1,0,0,1,578.903,609.927)" id="i12"><g id="i4"><path fill="#e95420" d="M-0.375,-0.075C-0.359,-0.067,-0.345,-0.061,-0.331,-0.053C-0.305,-0.041,-0.277,-0.027,-0.251,-0.017C-0.251,-0.017,-0.243,-0.013,-0.243,-0.013C-0.205,0.001,-0.057,0.053,0.003,0.067C0.003,0.067,-0.015,0.065,-0.015,0.065C0.129,0.103,0.251,0.113,0.337,0.115C0.397,0.121,0.439,0.121,0.457,0.119C0.457,0.119,0.365,0.115,0.365,0.115C0.365,0.115,0.411,0.115,0.411,0.115C0.411,0.115,0.417,0.115,0.417,0.115C0.417,0.115,0.421,0.113,0.421,0.113C0.421,0.113,0.171,0.085,0.171,0.085C0.171,0.085,0.075,0.075,0.075,0.075C0.075,0.075,0.025,0.057,0.025,0.057C-0.111,0.023,-0.241,-0.025,-0.365,-0.087C-0.365,-0.087,-0.457,-0.121,-0.457,-0.121C-0.429,-0.105,-0.401,-0.089,-0.375,-0.075Z" /></g></g><g transform="matrix(1,0,0,1,580.12,611.975)" id="i12"><g id="i4"><path fill="#e95420" d="M-0.158,-0.015C-0.172,-0.017,-0.186,-0.021,-0.2,-0.025C-0.2,-0.025,0.2,0.025,0.2,0.025C0.176,0.025,0.128,0.025,0.06,0.019C0.002,0.013,-0.072,0.003,-0.158,-0.015Z" /></g></g><g transform="matrix(1,0,0,1,576.545,606.697)" id="i12"><g id="i4"><path fill="#e95420" d="M0.021,-0.167C0.021,-0.167,-0.017,0.105,-0.017,0.105C-0.017,0.105,-0.021,0.167,-0.021,0.167C-0.021,0.167,0.021,-0.167,0.021,-0.167C0.021,-0.167,0.021,-0.167,0.021,-0.167Z" /></g></g><g transform="matrix(1,0,0,1,500,500)" opacity="0.5" id="i12"><g id="i4"><path fill="#fef3dd" d="M80.366,112.006C80.366,112.006,80.32,112,80.32,112C80.32,112,80.338,111.998,80.338,111.998C80.338,111.998,79.904,111.946,79.904,111.946C77.502,111.364,76.01,108.954,76.562,106.542C76.562,106.542,76.552,106.594,76.552,106.594C76.528,106.724,76.518,106.848,76.518,106.964C76.518,106.964,76.524,106.864,76.524,106.864C76.524,106.864,76.524,106.926,76.524,106.926C76.524,106.926,76.566,106.528,76.566,106.528C76.566,106.526,76.566,106.524,76.566,106.524C76.566,106.524,76.568,106.52,76.568,106.52C76.568,106.52,76.578,106.482,76.578,106.482C76.672,106.086,82.796,79.856,76.396,53.342C75.808,50.924,77.288,48.482,79.716,47.886C79.724,47.884,79.716,47.886,79.716,47.886C82.098,47.346,84.598,48.798,85.182,51.216C92.094,79.846,85.476,108.138,85.362,108.614C84.858,110.698,83.012,112.074,80.97,112.074C80.636,112.074,80.304,112.036,79.962,111.96C80.094,111.99,80.23,112.006,80.366,112.006C81.302,112.006,82.09,111.3,82.194,110.368C82.21,110.222,82.208,110.08,82.192,109.94C81.82,110.13,81.402,110.234,80.97,110.234C80.834,110.234,80.698,110.224,80.56,110.202C80.56,110.202,80.366,112.006,80.366,112.006C80.366,112.006,80.366,112.006,80.366,112.006ZM79.324,110.042C79.324,110.042,79.356,110.038,79.356,110.038C79.356,110.038,79.074,110.012,79.074,110.012C79.074,110.012,79.056,110.01,79.056,110.01C79.012,110.004,78.97,109.994,78.928,109.984C78.928,109.984,78.538,109.84,78.538,109.84C78.32,109.73,78.126,109.578,77.964,109.388C78.122,109.576,78.286,109.71,78.446,109.806C78.446,109.806,78.428,109.798,78.428,109.798C78.456,109.814,78.492,109.834,78.528,109.852C78.544,109.86,78.558,109.866,78.572,109.874C78.598,109.886,78.626,109.9,78.652,109.91C78.652,109.91,78.66,109.914,78.66,109.914C78.66,109.914,78.824,109.976,78.888,109.992C78.888,109.992,78.86,109.99,78.86,109.99C79.114,110.058,79.31,110.05,79.36,110.046C79.36,110.046,79.37,110.046,79.37,110.046C79.37,110.046,79.324,110.042,79.324,110.042Z" /></g></g><g transform="matrix(1,0,0,1,570.585,528.751)" opacity="0.5" id="i12"><g id="i4"><path fill="#fef3dd" d="M4.811,12.287C5.441,12.287,6.073,12.157,6.685,11.879C8.957,10.845,9.961,8.159,8.919,5.885C6.149,-0.163,2.705,-5.717,-1.309,-10.625C-2.899,-12.569,-5.749,-12.843,-7.677,-11.257C-9.605,-9.673,-9.889,-6.835,-8.307,-4.903C-4.771,-0.579,-1.743,4.317,0.701,9.649C1.457,11.307,3.093,12.287,4.811,12.287C4.811,12.287,4.811,12.287,4.811,12.287Z" /></g></g><g id="i13"><g transform="translate(515.572,544.586)"><animateTransform repeatCount="indefinite" type="translate" attributeName="transform" dur="4.183s" begin="0s" calcMode="spline" values="515.572 544.586; 515.572 544.586; 479.572 522.836; 562.072 528.836; 562.072 528.836; 515.572 544.586; 515.572 544.586; 479.572 522.836; 562.072 528.836; 562.072 528.836; 515.572 544.586; 515.572 544.586" keyTimes="0; 0.055777; 0.155378; 0.306773; 0.354582; 0.454183; 0.537848; 0.63745; 0.788844; 0.836653; 0.936255; 1" keySplines="0 0 1 1; 0.333 0 0.667 1; 0.333 0 0.667 1; 0 0 1 1; 0.333 0 0.667 1; 0 0 1 1; 0.333 0 0.667 1; 0.333 0 0.667 1; 0 0 1 1; 0.333 0 0.667 1; 0 0 1 1" fill="freeze" /><g transform="rotate(0)"><animateTransform repeatCount="indefinite" type="rotate" attributeName="transform" dur="4.183s" begin="0s" calcMode="spline" values="0; 0; 20; -20; -20; 0; 0; 20; -20; -20; 0; 0" keyTimes="0; 0.055777; 0.155378; 0.306773; 0.354582; 0.454183; 0.537848; 0.63745; 0.788844; 0.836653; 0.936255; 1" keySplines="0 0 1 1; 0.333 0 0.667 1; 0.333 0 0.667 1; 0.333 0 0.667 1; 0.333 0 0.667 1; 0.167 0 0.833 1; 0.333 0 0.667 1; 0.333 0 0.667 1; 0.333 0 0.667 1; 0.333 0 0.667 1; 0 0 1 1" fill="freeze" /><g transform="scale(1,1)"><animateTransform repeatCount="indefinite" type="scale" attributeName="transform" dur="4.183s" begin="0s" calcMode="spline" values="1 1; 1 1; 0.9 1; 0.9 1; 0.9 1; 1 1; 1 1; 0.9 1; 0.9 1; 0.9 1; 1 1; 1 1" keyTimes="0; 0.055777; 0.155378; 0.306773; 0.354582; 0.454183; 0.537848; 0.63745; 0.788844; 0.836653; 0.936255; 1" keySplines="0 0 1 1; 0.333 0 0.667 1; 0.333 0 0.667 1; 0.333 0 0.667 1; 0.333 0 0.667 1; 0.167 0 0.833 1; 0.333 0 0.667 1; 0.333 0 0.667 1; 0.333 0 0.667 1; 0.333 0 0.667 1; 0 0 1 1" fill="freeze" /><g transform="translate(-503.322,-546.086)"><g id="i4" transform="matrix(1,0,0,1,503.028,546)"><path fill="#fef3dd" d="M0,-36.75C20.296,-36.75,36.75,-20.296,36.75,0C36.75,20.296,20.296,36.75,0,36.75C-20.296,36.75,-36.75,20.296,-36.75,0C-36.75,-20.296,-20.296,-36.75,0,-36.75Z" /></g><g><g transform="translate(504.065,555.677)"><animateTransform repeatCount="indefinite" type="translate" attributeName="transform" dur="4.183s" begin="0s" calcMode="spline" values="504.065 555.677; 504.065 555.677; 501.865 542.83; 504.191 540.416; 504.191 540.416; 504.065 555.677; 504.065 555.677; 501.865 542.83; 504.191 540.416; 504.191 540.416; 504.065 555.677; 504.065 555.677" keyTimes="0; 0.055777; 0.155378; 0.306773; 0.354582; 0.454183; 0.537848; 0.63745; 0.788844; 0.836653; 0.936255; 1" keySplines="0 0 1 1; 0.333 0 0.667 1; 0.333 0 0.667 1; 0 0 1 1; 0.333 0 0.667 1; 0 0 1 1; 0.333 0 0.667 1; 0.333 0 0.667 1; 0 0 1 1; 0.333 0 0.667 1; 0 0 1 1" fill="freeze" /><g id="i14" transform="scale(1.53,1)"><g id="i4"><path fill="#6e6e6e" d="M10.316,0.509C10.007,8.823,6.173,16.379,0.479,16.724C-5.271,17.073,-10.336,8.823,-10.316,-0.509C-10.297,-9.327,-5.089,-16.168,0.608,-15.888C6.305,-15.608,10.644,-8.303,10.316,0.509Z" /></g></g></g></g><g id="i13" transform="matrix(1,0,0,1,503.163,523.753)"><path d="M4.691,-14.445C-12.717,-17.417,-37.861,1.903,-39.695,14.903C-39.695,14.903,39.553,15.145,39.553,15.145C39.553,1.133,18.503,-12.087,4.691,-14.445C4.691,-14.445,4.691,-14.445,4.691,-14.445Z" fill="#6e6e6e"><animate repeatCount="indefinite" attributeName="d" dur="4.183s" begin="0s" calcMode="spline" values="M4.691,-14.445C-12.717,-17.417,-37.861,1.903,-39.695,14.903C-39.695,14.903,39.553,15.145,39.553,15.145C39.553,1.133,18.503,-12.087,4.691,-14.445C4.691,-14.445,4.691,-14.445,4.691,-14.445Z; M4.691,-14.445C-12.717,-17.417,-37.861,1.903,-39.695,14.903C-39.695,14.903,39.553,15.145,39.553,15.145C39.553,1.133,18.503,-12.087,4.691,-14.445C4.691,-14.445,4.691,-14.445,4.691,-14.445Z; M4.691,-14.445C-19.163,-18.753,-57.49,2.244,-27.649,62.938C-27.649,62.938,38.281,55.446,38.281,55.446C48.748,-0.578,17.337,-14.003,4.691,-14.445C4.691,-14.445,4.691,-14.445,4.691,-14.445Z; M4.691,-14.445C-12.717,-17.417,-37.861,1.903,-39.695,14.903C-39.695,14.903,39.553,15.145,39.553,15.145C39.553,1.133,18.503,-12.087,4.691,-14.445C4.691,-14.445,4.691,-14.445,4.691,-14.445Z; M4.691,-14.445C-12.717,-17.417,-37.861,1.903,-39.695,14.903C-39.695,14.903,39.553,15.145,39.553,15.145C39.553,1.133,18.503,-12.087,4.691,-14.445C4.691,-14.445,4.691,-14.445,4.691,-14.445Z; M4.691,-14.445C-19.163,-18.753,-63.908,9.503,-23.388,63.657C-23.388,63.657,25.576,53.752,25.576,53.752C58.913,7.811,17.337,-14.003,4.691,-14.445C4.691,-14.445,4.691,-14.445,4.691,-14.445Z; M4.691,-14.445C-12.717,-17.417,-37.861,1.903,-39.695,14.903C-39.695,14.903,39.553,15.145,39.553,15.145C39.553,1.133,18.503,-12.087,4.691,-14.445C4.691,-14.445,4.691,-14.445,4.691,-14.445Z; M4.691,-14.445C-12.717,-17.417,-37.861,1.903,-39.695,14.903C-39.695,14.903,39.553,15.145,39.553,15.145C39.553,1.133,18.503,-12.087,4.691,-14.445C4.691,-14.445,4.691,-14.445,4.691,-14.445Z; M4.691,-14.445C-19.163,-18.753,-57.49,2.244,-27.649,62.938C-27.649,62.938,38.281,55.446,38.281,55.446C48.748,-0.578,17.337,-14.003,4.691,-14.445C4.691,-14.445,4.691,-14.445,4.691,-14.445Z; M4.691,-14.445C-12.717,-17.417,-37.861,1.903,-39.695,14.903C-39.695,14.903,39.553,15.145,39.553,15.145C39.553,1.133,18.503,-12.087,4.691,-14.445C4.691,-14.445,4.691,-14.445,4.691,-14.445Z; M4.691,-14.445C-12.717,-17.417,-37.861,1.903,-39.695,14.903C-39.695,14.903,39.553,15.145,39.553,15.145C39.553,1.133,18.503,-12.087,4.691,-14.445C4.691,-14.445,4.691,-14.445,4.691,-14.445Z; M4.691,-14.445C-19.163,-18.753,-63.908,9.503,-23.388,63.657C-23.388,63.657,25.576,53.752,25.576,53.752C58.913,7.811,17.337,-14.003,4.691,-14.445C4.691,-14.445,4.691,-14.445,4.691,-14.445Z; M4.691,-14.445C-12.717,-17.417,-37.861,1.903,-39.695,14.903C-39.695,14.903,39.553,15.145,39.553,15.145C39.553,1.133,18.503,-12.087,4.691,-14.445C4.691,-14.445,4.691,-14.445,4.691,-14.445Z; M4.691,-14.445C-12.717,-17.417,-37.861,1.903,-39.695,14.903C-39.695,14.903,39.553,15.145,39.553,15.145C39.553,1.133,18.503,-12.087,4.691,-14.445C4.691,-14.445,4.691,-14.445,4.691,-14.445Z" keyTimes="0; 0.155378; 0.195219; 0.23506; 0.274901; 0.314741; 0.354582; 0.63745; 0.677291; 0.717131; 0.756972; 0.796812; 0.836653; 1" keySplines="0 0 1 1; 0.167 0 0.833 1; 0.167 0 0.833 1; 0.167 0 0.833 1; 0.167 0 0.833 1; 0.167 0 0.833 1; 0.167 0 0.833 1; 0.167 0 0.833 1; 0.167 0 0.833 1; 0.167 0 0.833 1; 0.167 0 0.833 1; 0.167 0 0.833 1; 0 0 1 1" fill="freeze" /></path></g><g id="i8" transform="matrix(1,0,0,1,503.322,546.086)"><g id="i4"><path stroke-linejoin="round" stroke-linecap="round" stroke-width="10" stroke="#e95420" d="M0,-38.112C21.049,-38.112,38.112,-21.049,38.112,0C38.112,21.049,21.049,38.112,0,38.112C-21.049,38.112,-38.112,21.049,-38.112,0C-38.112,-21.049,-21.049,-38.112,0,-38.112Z" /></g></g></g></g></g></g></g><g transform="matrix(1,0,0,1,320.984,782.472)" id="i12"><g id="i4"><path d="M64.8,24.2C64.8,24.2,-7.2,-31,-7.2,-31C-7.2,-31,-64.8,31,-64.8,31" stroke-linejoin="round" stroke-linecap="round" stroke-width="9" stroke="#000000"><animate repeatCount="indefinite" attributeName="d" dur="4.183s" begin="0s" calcMode="spline" values="M64.8,24.2C64.8,24.2,-7.2,-31,-7.2,-31C-7.2,-31,-64.8,31,-64.8,31; M64.8,24.2C64.8,24.2,-7.2,-31,-7.2,-31C-7.2,-31,-64.8,31,-64.8,31; M64.8,24.2C64.8,24.2,-21.7,1,-21.7,1C-21.7,1,-107.3,42.5,-107.3,42.5; M64.8,24.2C64.8,24.2,-7.2,-31,-7.2,-31C-7.2,-31,-64.8,31,-64.8,31; M64.8,24.2C64.8,24.2,-7.2,-31,-7.2,-31C-7.2,-31,-64.8,31,-64.8,31; M64.8,24.2C64.8,24.2,-21.7,1,-21.7,1C-21.7,1,-107.3,42.5,-107.3,42.5; M64.8,24.2C64.8,24.2,-7.2,-31,-7.2,-31C-7.2,-31,-64.8,31,-64.8,31; M64.8,24.2C64.8,24.2,-7.2,-31,-7.2,-31C-7.2,-31,-64.8,31,-64.8,31; M64.8,24.2C64.8,24.2,-21.7,1,-21.7,1C-21.7,1,-107.3,42.5,-107.3,42.5; M64.8,24.2C64.8,24.2,-7.2,-31,-7.2,-31C-7.2,-31,-64.8,31,-64.8,31; M64.8,24.2C64.8,24.2,-7.2,-31,-7.2,-31C-7.2,-31,-64.8,31,-64.8,31" keyTimes="0; 0.119522; 0.219124; 0.318725; 0.398406; 0.498008; 0.59761; 0.677291; 0.776892; 0.876494; 1" keySplines="0 0 1 1; 0.333 0 0.667 1; 0.333 0 0.667 1; 0.333 0 0.667 1; 0.333 0 0.667 1; 0.333 0 0.667 1; 0.333 0 0.667 1; 0.333 0 0.667 1; 0.333 0 0.667 1; 0 0 1 1" fill="freeze" /></path></g></g><g id="i12"><g transform="translate(247.964,795.845)"><animateTransform repeatCount="indefinite" type="translate" attributeName="transform" dur="4.183s" begin="0s" calcMode="spline" values="247.964 795.845; 247.964 795.845; 208.964 812.845; 247.964 795.845; 247.964 795.845; 208.964 812.845; 247.964 795.845; 247.964 795.845; 208.964 812.845; 247.964 795.845; 247.964 795.845" keyTimes="0; 0.119522; 0.219124; 0.318725; 0.398406; 0.498008; 0.59761; 0.677291; 0.776892; 0.876494; 1" keySplines="0 0 1 1; 0.333 0 0.667 1; 0.333 0 0.667 1; 0 0 1 1; 0.333 0 0.667 1; 0.333 0 0.667 1; 0 0 1 1; 0.333 0 0.667 1; 0.333 0 0.667 1; 0 0 1 1" fill="freeze" /><g transform="translate(-247.964,-795.845)"><g id="i4" transform="matrix(1,0,0,1,239.659,795.845)"><path d="M11.841,33.489C11.841,33.489,-1.675,30.519,-1.675,30.519C-1.675,30.519,-19.091,-22.065,-19.091,-22.065C-19.091,-22.065,-5.781,-33.489,-5.781,-33.489C-5.781,-33.489,11.841,33.489,11.841,33.489C11.841,33.489,11.841,33.489,11.841,33.489Z" fill="#e95420"><animate repeatCount="indefinite" attributeName="d" dur="4.183s" begin="0s" calcMode="spline" values="M11.841,33.489C11.841,33.489,-1.675,30.519,-1.675,30.519C-1.675,30.519,-19.091,-22.065,-19.091,-22.065C-19.091,-22.065,-5.781,-33.489,-5.781,-33.489C-5.781,-33.489,11.841,33.489,11.841,33.489C11.841,33.489,11.841,33.489,11.841,33.489Z; M11.841,33.489C11.841,33.489,-1.675,30.519,-1.675,30.519C-1.675,30.519,-19.091,-22.065,-19.091,-22.065C-19.091,-22.065,-5.781,-33.489,-5.781,-33.489C-5.781,-33.489,11.841,33.489,11.841,33.489C11.841,33.489,11.841,33.489,11.841,33.489Z; M11.841,33.489C11.841,33.489,-1.675,30.519,-1.675,30.519C-1.675,30.519,-36.091,-21.815,-36.091,-21.815C-36.091,-21.815,-22.531,-25.489,-22.531,-25.489C-22.531,-25.489,11.841,33.489,11.841,33.489C11.841,33.489,11.841,33.489,11.841,33.489Z; M11.841,33.489C11.841,33.489,-1.675,30.519,-1.675,30.519C-1.675,30.519,-19.091,-22.065,-19.091,-22.065C-19.091,-22.065,-5.781,-33.489,-5.781,-33.489C-5.781,-33.489,11.841,33.489,11.841,33.489C11.841,33.489,11.841,33.489,11.841,33.489Z; M11.841,33.489C11.841,33.489,-1.675,30.519,-1.675,30.519C-1.675,30.519,-19.091,-22.065,-19.091,-22.065C-19.091,-22.065,-5.781,-33.489,-5.781,-33.489C-5.781,-33.489,11.841,33.489,11.841,33.489C11.841,33.489,11.841,33.489,11.841,33.489Z; M11.841,33.489C11.841,33.489,-1.675,30.519,-1.675,30.519C-1.675,30.519,-36.091,-21.815,-36.091,-21.815C-36.091,-21.815,-22.531,-25.489,-22.531,-25.489C-22.531,-25.489,11.841,33.489,11.841,33.489C11.841,33.489,11.841,33.489,11.841,33.489Z; M11.841,33.489C11.841,33.489,-1.675,30.519,-1.675,30.519C-1.675,30.519,-19.091,-22.065,-19.091,-22.065C-19.091,-22.065,-5.781,-33.489,-5.781,-33.489C-5.781,-33.489,11.841,33.489,11.841,33.489C11.841,33.489,11.841,33.489,11.841,33.489Z; M11.841,33.489C11.841,33.489,-1.675,30.519,-1.675,30.519C-1.675,30.519,-19.091,-22.065,-19.091,-22.065C-19.091,-22.065,-5.781,-33.489,-5.781,-33.489C-5.781,-33.489,11.841,33.489,11.841,33.489C11.841,33.489,11.841,33.489,11.841,33.489Z; M11.841,33.489C11.841,33.489,-1.675,30.519,-1.675,30.519C-1.675,30.519,-36.091,-21.815,-36.091,-21.815C-36.091,-21.815,-22.531,-25.489,-22.531,-25.489C-22.531,-25.489,11.841,33.489,11.841,33.489C11.841,33.489,11.841,33.489,11.841,33.489Z; M11.841,33.489C11.841,33.489,-1.675,30.519,-1.675,30.519C-1.675,30.519,-19.091,-22.065,-19.091,-22.065C-19.091,-22.065,-5.781,-33.489,-5.781,-33.489C-5.781,-33.489,11.841,33.489,11.841,33.489C11.841,33.489,11.841,33.489,11.841,33.489Z; M11.841,33.489C11.841,33.489,-1.675,30.519,-1.675,30.519C-1.675,30.519,-19.091,-22.065,-19.091,-22.065C-19.091,-22.065,-5.781,-33.489,-5.781,-33.489C-5.781,-33.489,11.841,33.489,11.841,33.489C11.841,33.489,11.841,33.489,11.841,33.489Z" keyTimes="0; 0.119522; 0.219124; 0.318725; 0.398406; 0.498008; 0.59761; 0.677291; 0.776892; 0.876494; 1" keySplines="0 0 1 1; 0.333 0 0.667 1; 0.333 0 0.667 1; 0.333 0 0.667 1; 0.333 0 0.667 1; 0.333 0 0.667 1; 0.333 0 0.667 1; 0.333 0 0.667 1; 0.333 0 0.667 1; 0 0 1 1" fill="freeze" /></path></g><g id="i4" transform="matrix(1,0,0,1,250.994,795.845)"><path d="M0.506,33.489C0.506,33.489,17.116,23.785,17.116,23.785C17.116,23.785,2.876,-20.981,2.876,-20.981C2.876,-20.981,-17.116,-33.489,-17.116,-33.489C-17.116,-33.489,0.506,33.489,0.506,33.489C0.506,33.489,0.506,33.489,0.506,33.489Z" fill="#a22b00"><animate repeatCount="indefinite" attributeName="d" dur="4.183s" begin="0s" calcMode="spline" values="M0.506,33.489C0.506,33.489,17.116,23.785,17.116,23.785C17.116,23.785,2.876,-20.981,2.876,-20.981C2.876,-20.981,-17.116,-33.489,-17.116,-33.489C-17.116,-33.489,0.506,33.489,0.506,33.489C0.506,33.489,0.506,33.489,0.506,33.489Z; M0.506,33.489C0.506,33.489,17.116,23.785,17.116,23.785C17.116,23.785,2.876,-20.981,2.876,-20.981C2.876,-20.981,-17.116,-33.489,-17.116,-33.489C-17.116,-33.489,0.506,33.489,0.506,33.489C0.506,33.489,0.506,33.489,0.506,33.489Z; M0.506,33.489C0.506,33.489,17.116,23.785,17.116,23.785C17.116,23.785,-10.874,-17.981,-10.874,-17.981C-10.874,-17.981,-33.866,-25.489,-33.866,-25.489C-33.866,-25.489,0.506,33.489,0.506,33.489C0.506,33.489,0.506,33.489,0.506,33.489Z; M0.506,33.489C0.506,33.489,17.116,23.785,17.116,23.785C17.116,23.785,2.876,-20.981,2.876,-20.981C2.876,-20.981,-17.116,-33.489,-17.116,-33.489C-17.116,-33.489,0.506,33.489,0.506,33.489C0.506,33.489,0.506,33.489,0.506,33.489Z; M0.506,33.489C0.506,33.489,17.116,23.785,17.116,23.785C17.116,23.785,2.876,-20.981,2.876,-20.981C2.876,-20.981,-17.116,-33.489,-17.116,-33.489C-17.116,-33.489,0.506,33.489,0.506,33.489C0.506,33.489,0.506,33.489,0.506,33.489Z; M0.506,33.489C0.506,33.489,17.116,23.785,17.116,23.785C17.116,23.785,-10.874,-17.981,-10.874,-17.981C-10.874,-17.981,-33.866,-25.489,-33.866,-25.489C-33.866,-25.489,0.506,33.489,0.506,33.489C0.506,33.489,0.506,33.489,0.506,33.489Z; M0.506,33.489C0.506,33.489,17.116,23.785,17.116,23.785C17.116,23.785,2.876,-20.981,2.876,-20.981C2.876,-20.981,-17.116,-33.489,-17.116,-33.489C-17.116,-33.489,0.506,33.489,0.506,33.489C0.506,33.489,0.506,33.489,0.506,33.489Z; M0.506,33.489C0.506,33.489,17.116,23.785,17.116,23.785C17.116,23.785,2.876,-20.981,2.876,-20.981C2.876,-20.981,-17.116,-33.489,-17.116,-33.489C-17.116,-33.489,0.506,33.489,0.506,33.489C0.506,33.489,0.506,33.489,0.506,33.489Z; M0.506,33.489C0.506,33.489,17.116,23.785,17.116,23.785C17.116,23.785,-10.874,-17.981,-10.874,-17.981C-10.874,-17.981,-33.866,-25.489,-33.866,-25.489C-33.866,-25.489,0.506,33.489,0.506,33.489C0.506,33.489,0.506,33.489,0.506,33.489Z; M0.506,33.489C0.506,33.489,17.116,23.785,17.116,23.785C17.116,23.785,2.876,-20.981,2.876,-20.981C2.876,-20.981,-17.116,-33.489,-17.116,-33.489C-17.116,-33.489,0.506,33.489,0.506,33.489C0.506,33.489,0.506,33.489,0.506,33.489Z; M0.506,33.489C0.506,33.489,17.116,23.785,17.116,23.785C17.116,23.785,2.876,-20.981,2.876,-20.981C2.876,-20.981,-17.116,-33.489,-17.116,-33.489C-17.116,-33.489,0.506,33.489,0.506,33.489C0.506,33.489,0.506,33.489,0.506,33.489Z" keyTimes="0; 0.119522; 0.219124; 0.318725; 0.398406; 0.498008; 0.59761; 0.677291; 0.776892; 0.876494; 1" keySplines="0 0 1 1; 0.333 0 0.667 1; 0.333 0 0.667 1; 0.333 0 0.667 1; 0.333 0 0.667 1; 0.333 0 0.667 1; 0.333 0 0.667 1; 0.333 0 0.667 1; 0.333 0 0.667 1; 0 0 1 1" fill="freeze" /></path></g></g></g></g><g transform="matrix(1,0,0,1,337.617,692.732)" id="i12"><g id="i4"><path d="M44.877,-46.717C44.877,-46.717,-44.877,-31.255,-44.877,-31.255C-44.877,-31.255,-16.891,46.717,-16.891,46.717" stroke-linejoin="round" stroke-linecap="round" stroke-width="9" stroke="#000000"><animate repeatCount="indefinite" attributeName="d" dur="4.183s" begin="0s" calcMode="spline" values="M44.877,-46.717C44.877,-46.717,-44.877,-31.255,-44.877,-31.255C-44.877,-31.255,-16.891,46.717,-16.891,46.717; M44.877,-46.717C44.877,-46.717,-44.877,-31.255,-44.877,-31.255C-44.877,-31.255,-16.891,46.717,-16.891,46.717; M44.877,-46.717C44.877,-46.717,-33.377,-11.255,-33.377,-11.255C-33.377,-11.255,-33.391,69.217,-33.391,69.217; M44.877,-46.717C44.877,-46.717,-44.877,-31.255,-44.877,-31.255C-44.877,-31.255,-16.891,46.717,-16.891,46.717; M44.877,-46.717C44.877,-46.717,-44.877,-31.255,-44.877,-31.255C-44.877,-31.255,-16.891,46.717,-16.891,46.717; M44.877,-46.717C44.877,-46.717,-33.377,-11.255,-33.377,-11.255C-33.377,-11.255,-33.391,69.217,-33.391,69.217; M44.877,-46.717C44.877,-46.717,-44.877,-31.255,-44.877,-31.255C-44.877,-31.255,-16.891,46.717,-16.891,46.717; M44.877,-46.717C44.877,-46.717,-44.877,-31.255,-44.877,-31.255C-44.877,-31.255,-16.891,46.717,-16.891,46.717; M44.877,-46.717C44.877,-46.717,-33.377,-11.255,-33.377,-11.255C-33.377,-11.255,-33.391,69.217,-33.391,69.217; M44.877,-46.717C44.877,-46.717,-44.877,-31.255,-44.877,-31.255C-44.877,-31.255,-16.891,46.717,-16.891,46.717; M44.877,-46.717C44.877,-46.717,-44.877,-31.255,-44.877,-31.255C-44.877,-31.255,-16.891,46.717,-16.891,46.717" keyTimes="0; 0.119522; 0.219124; 0.318725; 0.398406; 0.498008; 0.59761; 0.677291; 0.776892; 0.876494; 1" keySplines="0 0 1 1; 0.333 0 0.667 1; 0.333 0 0.667 1; 0.333 0 0.667 1; 0.333 0 0.667 1; 0.333 0 0.667 1; 0.333 0 0.667 1; 0.333 0 0.667 1; 0.333 0 0.667 1; 0 0 1 1" fill="freeze" /></path></g></g><g id="i12"><g transform="translate(306.82,746.994)"><animateTransform repeatCount="indefinite" type="translate" attributeName="transform" dur="4.183s" begin="0s" calcMode="spline" values="306.82 746.994; 306.82 746.994; 294.82 773.994; 306.82 746.994; 306.82 746.994; 294.82 773.994; 306.82 746.994; 306.82 746.994; 294.82 773.994; 306.82 746.994; 306.82 746.994" keyTimes="0; 0.119522; 0.219124; 0.318725; 0.398406; 0.498008; 0.59761; 0.677291; 0.776892; 0.876494; 1" keySplines="0 0 1 1; 0.333 0 0.667 1; 0.333 0 0.667 1; 0 0 1 1; 0.333 0 0.667 1; 0.333 0 0.667 1; 0 0 1 1; 0.333 0 0.667 1; 0.333 0 0.667 1; 0 0 1 1" fill="freeze" /><g id="i4"><path fill="#e95420" d="M22.6,-11.762C18.61,-21.174,0.624,-20.104,-9.936,-12.038C-15.58,-7.728,-23.218,5.244,-24.022,9.944C-24.824,14.646,-21.568,18.904,-15.976,18.42C-9.08,17.824,0.386,7.802,0.386,7.802C-5.912,13.978,2.214,18.336,14.34,9.404C21.068,4.45,27.068,-1.222,22.6,-11.762Z" /></g></g></g><g transform="matrix(1,0,0,1,500.667,706.349)" id="i12"><g id="i4"><path fill="#e95420" d="M106.271,118.127C106.271,118.127,-129.333,110.317,-129.333,110.317C-129.333,110.317,-139.111,-118.127,-139.111,-118.127C-139.111,-118.127,139.111,-111.905,139.111,-111.905C139.111,-111.905,106.271,118.127,106.271,118.127C106.271,118.127,106.271,118.127,106.271,118.127Z" /></g></g><g transform="matrix(1,0,0,1,435.462,704.386)" id="i12"><g id="i4"><path fill="#6e6e6e" d="M9.442,115.72C8.926,115.72,8.488,115.326,8.446,114.802C8.446,114.802,-10.44,-114.64,-10.44,-114.64C-10.486,-115.19,-10.076,-115.674,-9.524,-115.718C-8.958,-115.75,-8.49,-115.354,-8.446,-114.804C-8.446,-114.804,10.44,114.638,10.44,114.638C10.484,115.188,10.076,115.672,9.524,115.716C9.496,115.718,9.468,115.72,9.442,115.72Z" /></g></g><g transform="matrix(0.995,-0.105,0.105,0.995,693.847,574.349)" id="i6"><g id="i4"><path stroke-linejoin="round" stroke-linecap="round" stroke-width="1.5" stroke="#6e6e6e" d="M15.92,-25.913C5.39,-27.111,-8.292,-16.139,-6.5,-9.391C-4.324,-1.199,21.906,-4.423,19.914,-8.711C17.746,-13.377,-3.898,-13.181,-9.31,-2.441C-15.93,10.697,15.762,9.751,15.99,5.833C16.274,0.961,-9.27,-1.133,-13.776,10.233C-18.28,21.601,4.362,26.981,7.814,21.765C10.05,18.389,-2.492,13.235,-10.62,15.343C-16.046,16.749,-19.096,22.895,-20.022,26.003" /></g></g><g transform="matrix(1,0,0,1,648.573,709.46)" id="i12"><g id="i4"><path fill="#a22b00" d="M-41.635,115.016C-41.635,115.016,21.689,105.376,21.689,105.376C21.689,105.376,41.635,-107.044,41.635,-107.044C41.635,-107.044,-8.795,-115.016,-8.795,-115.016C-8.795,-115.016,-41.635,115.016,-41.635,115.016C-41.635,115.016,-41.635,115.016,-41.635,115.016Z" /></g></g><g transform="matrix(1,0,0,1,498.236,706.222)" id="i6"><g id="i4"><path fill="#6e6e6e" d="M-106.768,66.41C-106.768,66.41,-112.576,-69.312,-112.576,-69.312C-113.182,-83.48,-101.688,-95.21,-87.512,-94.892C-87.512,-94.892,88.606,-90.954,88.606,-90.954C103.314,-90.626,114.428,-77.518,112.348,-62.954C112.348,-62.954,92.822,73.828,92.822,73.828C91.052,86.224,80.232,95.3,67.718,94.884C67.718,94.884,-83.064,89.886,-83.064,89.886C-95.888,89.46,-106.218,79.228,-106.768,66.41C-106.768,66.41,-106.768,66.41,-106.768,66.41Z" /></g></g><g transform="matrix(1,0,0,1,0,0)" visibility="hidden" id="i8"><animate repeatCount="indefinite" begin="0s" calcMode="discrete" dur="4.183s" values="hidden; visible; hidden; hidden; hidden" keyTimes="0; 0.282977; 0.680946; 0.99992; 1" attributeName="visibility" /><g clip-path="url(#i0)"><g mask="url(#i3)" opacity="0.5" visibility="hidden"><animate repeatCount="indefinite" begin="0s" calcMode="discrete" dur="4.183s" values="hidden; visible; hidden; hidden; hidden" keyTimes="0; 0.282977; 0.788937; 0.99992; 1" attributeName="visibility" /><g><g transform="translate(209.62,0)"><animateTransform repeatCount="indefinite" type="translate" attributeName="transform" dur="4.183s" begin="0s" calcMode="spline" values="209.62 0; 209.62 0; 819.62 0; 819.62 0" keyTimes="0; 0.282868; 0.561753; 1" keySplines="0 0 1 1; 0.167 0.167 0 1; 0 0 1 1" fill="freeze" /><g transform="translate(0,731.455)"><g transform="rotate(28) translate(196.628,-235.722)"><g transform="matrix(1,0,0,1,-236.282,235.722)"><rect height="412.094" width="77.268" y="-206.047" x="-38.634" fill="#fef3dd" /></g><g transform="matrix(0.589,0,0,1,-141.097,235.722)"><rect height="412.094" width="77.268" y="-206.047" x="-38.634" fill="#fef3dd" /></g></g></g></g></g></g><g display="none" transform="matrix(1,0,0,1,498.236,706.222)" visibility="hidden"><animate repeatCount="indefinite" begin="0s" calcMode="discrete" dur="4.183s" values="hidden; visible; hidden; hidden; hidden" keyTimes="0; 0.282977; 0.788937; 0.99992; 1" attributeName="visibility" /><g><path fill="#6e6e6e" d="M-106.768,66.41C-106.768,66.41,-112.576,-69.312,-112.576,-69.312C-113.182,-83.48,-101.688,-95.21,-87.512,-94.892C-87.512,-94.892,88.606,-90.954,88.606,-90.954C103.314,-90.626,114.428,-77.518,112.348,-62.954C112.348,-62.954,92.822,73.828,92.822,73.828C91.052,86.224,80.232,95.3,67.718,94.884C67.718,94.884,-83.064,89.886,-83.064,89.886C-95.888,89.46,-106.218,79.228,-106.768,66.41C-106.768,66.41,-106.768,66.41,-106.768,66.41Z" /></g></g></g></g><g transform="matrix(1,0,0,1,0,0)" id="i13"><g id="i4" transform="matrix(1,0,0,1,423.595,669.87)"><path fill="#fef3dd" d="M-13.101,-16.894C-13.101,-16.894,14.147,-16.026,14.147,-16.026C14.147,-16.026,13.923,-9,13.923,-9C13.923,-9,-3.135,-9.542,-3.135,-9.542C-3.135,-9.542,-3.301,-4.312,-3.301,-4.312C-3.301,-4.312,12.523,-3.808,12.523,-3.808C12.523,-3.808,12.309,2.902,12.309,2.902C12.309,2.902,-3.515,2.398,-3.515,2.398C-3.515,2.398,-3.721,8.884,-3.721,8.884C-3.721,8.884,13.831,9.442,13.831,9.442C13.831,9.442,13.595,16.894,13.595,16.894C13.595,16.894,-14.147,16.012,-14.147,16.012C-14.147,16.012,-13.101,-16.894,-13.101,-16.894Z" /></g><g id="i4" transform="matrix(1,0,0,1,458.981,671.006)"><path fill="#fef3dd" d="M-16.181,15.936C-16.181,15.936,-15.135,-16.968,-15.135,-16.968C-15.135,-16.968,1.811,-16.428,1.811,-16.428C4.953,-16.328,7.347,-15.982,8.989,-15.39C10.633,-14.798,11.939,-13.758,12.911,-12.266C13.883,-10.774,14.335,-8.982,14.267,-6.886C14.209,-5.06,13.769,-3.498,12.949,-2.198C12.129,-0.898,11.023,0.142,9.635,0.92C8.751,1.416,7.547,1.812,6.023,2.108C7.221,2.552,8.091,2.984,8.631,3.404C8.995,3.686,9.519,4.28,10.201,5.186C10.883,6.092,11.337,6.788,11.561,7.276C11.561,7.276,16.181,16.968,16.181,16.968C16.181,16.968,4.693,16.602,4.693,16.602C4.693,16.602,-0.421,6.374,-0.421,6.374C-1.069,5.052,-1.655,4.186,-2.181,3.78C-2.899,3.248,-3.721,2.966,-4.649,2.936C-4.649,2.936,-5.547,2.908,-5.547,2.908C-5.547,2.908,-5.971,16.264,-5.971,16.264C-5.971,16.264,-16.181,15.936,-16.181,15.936C-16.181,15.936,-16.181,15.936,-16.181,15.936ZM-5.345,-3.31C-5.345,-3.31,-1.059,-3.174,-1.059,-3.174C-0.595,-3.16,0.307,-3.28,1.649,-3.536C2.327,-3.65,2.887,-3.976,3.331,-4.516C3.775,-5.056,4.009,-5.686,4.031,-6.404C4.065,-7.466,3.755,-8.292,3.099,-8.882C2.443,-9.472,1.189,-9.796,-0.667,-9.856C-0.667,-9.856,-5.133,-9.998,-5.133,-9.998C-5.133,-9.998,-5.345,-3.31,-5.345,-3.31C-5.345,-3.31,-5.345,-3.31,-5.345,-3.31Z" /></g><g id="i4" transform="matrix(1,0,0,1,494.736,672.144)"><path fill="#fef3dd" d="M-16.182,15.936C-16.182,15.936,-15.136,-16.968,-15.136,-16.968C-15.136,-16.968,1.81,-16.428,1.81,-16.428C4.952,-16.328,7.346,-15.982,8.988,-15.39C10.632,-14.798,11.938,-13.758,12.91,-12.266C13.882,-10.774,14.334,-8.98,14.266,-6.886C14.208,-5.06,13.768,-3.498,12.948,-2.198C12.126,-0.898,11.022,0.142,9.634,0.92C8.75,1.416,7.546,1.812,6.022,2.108C7.22,2.552,8.09,2.984,8.63,3.404C8.996,3.686,9.518,4.28,10.202,5.186C10.884,6.092,11.338,6.788,11.562,7.276C11.562,7.276,16.182,16.968,16.182,16.968C16.182,16.968,4.692,16.602,4.692,16.602C4.692,16.602,-0.422,6.374,-0.422,6.374C-1.068,5.052,-1.656,4.186,-2.182,3.78C-2.9,3.248,-3.722,2.966,-4.65,2.936C-4.65,2.936,-5.548,2.908,-5.548,2.908C-5.548,2.908,-5.972,16.262,-5.972,16.262C-5.972,16.262,-16.182,15.936,-16.182,15.936C-16.182,15.936,-16.182,15.936,-16.182,15.936ZM-5.346,-3.31C-5.346,-3.31,-1.06,-3.174,-1.06,-3.174C-0.596,-3.16,0.306,-3.28,1.648,-3.538C2.326,-3.652,2.886,-3.978,3.33,-4.518C3.774,-5.058,4.008,-5.688,4.03,-6.406C4.064,-7.468,3.754,-8.294,3.098,-8.884C2.442,-9.474,1.186,-9.798,-0.668,-9.858C-0.668,-9.858,-5.134,-10,-5.134,-10C-5.134,-10,-5.346,-3.31,-5.346,-3.31C-5.346,-3.31,-5.346,-3.31,-5.346,-3.31Z" /></g><g id="i4" transform="matrix(1,0,0,1,529.683,673.244)"><path fill="#fef3dd" d="M-17.051,-0.526C-16.879,-5.898,-15.251,-10.032,-12.163,-12.93C-9.075,-15.826,-4.861,-17.19,0.481,-17.02C5.957,-16.846,10.131,-15.242,12.999,-12.208C15.869,-9.174,17.219,-5.008,17.051,0.29C16.929,4.136,16.181,7.27,14.809,9.69C13.435,12.11,11.505,13.966,9.015,15.258C6.525,16.55,3.455,17.136,-0.197,17.02C-3.907,16.902,-6.959,16.214,-9.353,14.954C-11.747,13.694,-13.659,11.762,-15.089,9.154C-16.519,6.546,-17.173,3.32,-17.051,-0.526C-17.051,-0.526,-17.051,-0.526,-17.051,-0.526ZM-6.885,-0.158C-6.991,3.164,-6.449,5.57,-5.261,7.06C-4.073,8.55,-2.417,9.33,-0.291,9.398C1.893,9.468,3.607,8.81,4.849,7.428C6.091,6.044,6.771,3.512,6.889,-0.17C6.987,-3.266,6.435,-5.55,5.231,-7.018C4.027,-8.488,2.355,-9.256,0.215,-9.324C-1.835,-9.39,-3.505,-8.716,-4.793,-7.304C-6.081,-5.892,-6.779,-3.51,-6.885,-0.158Z" /></g><g id="i4" transform="matrix(1,0,0,1,567.995,674.474)"><path fill="#fef3dd" d="M-16.181,15.936C-16.181,15.936,-15.135,-16.968,-15.135,-16.968C-15.135,-16.968,1.811,-16.428,1.811,-16.428C4.953,-16.328,7.347,-15.982,8.989,-15.39C10.633,-14.798,11.939,-13.758,12.911,-12.266C13.883,-10.774,14.335,-8.98,14.267,-6.886C14.209,-5.06,13.769,-3.498,12.949,-2.198C12.129,-0.898,11.023,0.142,9.635,0.92C8.749,1.416,7.545,1.812,6.023,2.108C7.221,2.552,8.091,2.984,8.631,3.404C8.995,3.686,9.519,4.28,10.201,5.186C10.883,6.092,11.337,6.788,11.561,7.276C11.561,7.276,16.181,16.968,16.181,16.968C16.181,16.968,4.693,16.602,4.693,16.602C4.693,16.602,-0.421,6.374,-0.421,6.374C-1.069,5.052,-1.655,4.186,-2.181,3.78C-2.899,3.248,-3.721,2.966,-4.649,2.936C-4.649,2.936,-5.547,2.908,-5.547,2.908C-5.547,2.908,-5.971,16.262,-5.971,16.262C-5.971,16.262,-16.181,15.936,-16.181,15.936C-16.181,15.936,-16.181,15.936,-16.181,15.936ZM-5.345,-3.31C-5.345,-3.31,-1.059,-3.174,-1.059,-3.174C-0.595,-3.16,0.307,-3.28,1.649,-3.538C2.327,-3.652,2.887,-3.978,3.331,-4.518C3.775,-5.058,4.009,-5.688,4.031,-6.406C4.065,-7.468,3.755,-8.294,3.099,-8.884C2.443,-9.474,1.189,-9.798,-0.667,-9.858C-0.667,-9.858,-5.133,-10,-5.133,-10C-5.133,-10,-5.345,-3.31,-5.345,-3.31C-5.345,-3.31,-5.345,-3.31,-5.345,-3.31Z" /></g></g><g transform="matrix(1,0,0,1,489.64,730.272)" id="i12"><g id="i4"><path stroke-linejoin="round" stroke-linecap="round" stroke-width="3.5" stroke="#fef3dd" d="M-78.402,5.146C-78.402,5.146,-58.69,-13.06,-58.69,-13.06C-58.69,-13.06,-39.65,6.78,-39.65,6.78C-39.65,6.78,-19.17,-11.14,-19.17,-11.14C-19.17,-11.14,-0.03,8.708,-0.03,8.708C-0.03,8.708,20.03,-8.74,20.03,-8.74C20.03,-8.74,39.07,10.792,39.07,10.792C39.07,10.792,58.91,-6.82,58.91,-6.82C58.91,-6.82,78.402,13.06,78.402,13.06" /></g></g><g transform="matrix(1,0,0,1,489.64,730.272)" id="i12"><g id="i4"><path stroke-linejoin="round" stroke-linecap="round" stroke-width="2" stroke="#fef3dd" d="M-78.402,5.146C-78.402,5.146,-58.69,-13.06,-58.69,-13.06C-58.69,-13.06,-39.65,6.78,-39.65,6.78C-39.65,6.78,-19.17,-11.14,-19.17,-11.14C-19.17,-11.14,-0.03,8.708,-0.03,8.708C-0.03,8.708,20.03,-8.74,20.03,-8.74C20.03,-8.74,39.07,10.792,39.07,10.792C39.07,10.792,58.91,-6.82,58.91,-6.82C58.91,-6.82,78.402,13.06,78.402,13.06" /></g></g><g transform="matrix(1,0,0,1,578.587,799.508)" id="i7"><g id="i4"><path d="M63.603,-10.65C63.603,-10.65,2.237,-29.964,2.237,-29.964C2.237,-29.964,-63.603,29.964,-63.603,29.964" stroke-linejoin="round" stroke-linecap="round" stroke-width="9" stroke="#000000"><animate repeatCount="indefinite" attributeName="d" dur="4.183s" begin="0s" calcMode="spline" values="M63.603,-10.65C63.603,-10.65,2.237,-29.964,2.237,-29.964C2.237,-29.964,-63.603,29.964,-63.603,29.964; M63.603,-10.65C63.603,-10.65,2.237,-29.964,2.237,-29.964C2.237,-29.964,-63.603,29.964,-63.603,29.964; M63.603,-10.65C63.603,-10.65,2.061,-10.964,2.061,-10.964C2.061,-10.964,-73.853,34.464,-73.853,34.464; M63.603,-10.65C63.603,-10.65,2.237,-29.964,2.237,-29.964C2.237,-29.964,-63.603,29.964,-63.603,29.964; M63.603,-10.65C63.603,-10.65,2.237,-29.964,2.237,-29.964C2.237,-29.964,-63.603,29.964,-63.603,29.964; M63.603,-10.65C63.603,-10.65,2.061,-10.964,2.061,-10.964C2.061,-10.964,-73.853,34.464,-73.853,34.464; M63.603,-10.65C63.603,-10.65,2.237,-29.964,2.237,-29.964C2.237,-29.964,-63.603,29.964,-63.603,29.964; M63.603,-10.65C63.603,-10.65,2.237,-29.964,2.237,-29.964C2.237,-29.964,-63.603,29.964,-63.603,29.964; M63.603,-10.65C63.603,-10.65,2.061,-10.964,2.061,-10.964C2.061,-10.964,-73.853,34.464,-73.853,34.464; M63.603,-10.65C63.603,-10.65,2.237,-29.964,2.237,-29.964C2.237,-29.964,-63.603,29.964,-63.603,29.964; M63.603,-10.65C63.603,-10.65,2.237,-29.964,2.237,-29.964C2.237,-29.964,-63.603,29.964,-63.603,29.964" keyTimes="0; 0.139442; 0.239044; 0.338645; 0.418327; 0.517928; 0.61753; 0.697211; 0.796813; 0.896414; 1" keySplines="0 0 1 1; 0.333 0 0.667 1; 0.333 0 0.667 1; 0.333 0 0.667 1; 0.333 0 0.667 1; 0.333 0 0.667 1; 0.333 0 0.667 1; 0.333 0 0.667 1; 0.333 0 0.667 1; 0 0 1 1" fill="freeze" /></path></g></g><g id="i7"><g transform="translate(506.536,842.78)"><animateTransform repeatCount="indefinite" type="translate" attributeName="transform" dur="4.183s" begin="0s" calcMode="spline" values="506.536 842.78; 506.536 842.78; 495.911 845.78; 506.536 842.78; 506.536 842.78; 495.911 845.78; 506.536 842.78; 506.536 842.78; 495.911 845.78; 506.536 842.78; 506.536 842.78" keyTimes="0; 0.139442; 0.239044; 0.338645; 0.418327; 0.517928; 0.61753; 0.697211; 0.796813; 0.896414; 1" keySplines="0 0 1 1; 0.333 0 0.667 1; 0.333 0 0.667 1; 0 0 1 1; 0.333 0 0.667 1; 0.333 0 0.667 1; 0 0 1 1; 0.333 0 0.667 1; 0.333 0 0.667 1; 0 0 1 1" fill="freeze" /><g transform="translate(-506.536,-842.78)"><g id="i4" transform="matrix(1,0,0,1,507.967,817.78)"><path d="M14.823,34.724C14.823,34.724,-21.603,32.428,-21.603,32.428C-21.603,32.428,-24.477,-34.724,-24.477,-34.724C-24.477,-34.724,24.477,-32.894,24.477,-32.894C24.477,-32.894,14.823,34.724,14.823,34.724Z" fill="#e95420"><animate repeatCount="indefinite" attributeName="d" dur="4.183s" begin="0s" calcMode="spline" values="M14.823,34.724C14.823,34.724,-21.603,32.428,-21.603,32.428C-21.603,32.428,-24.477,-34.724,-24.477,-34.724C-24.477,-34.724,24.477,-32.894,24.477,-32.894C24.477,-32.894,14.823,34.724,14.823,34.724Z; M14.823,34.724C14.823,34.724,-21.603,32.428,-21.603,32.428C-21.603,32.428,-24.477,-34.724,-24.477,-34.724C-24.477,-34.724,24.477,-32.894,24.477,-32.894C24.477,-32.894,14.823,34.724,14.823,34.724Z; M14.823,34.724C14.823,34.724,-21.603,32.428,-21.603,32.428C-21.603,32.428,-48.227,-23.224,-48.227,-23.224C-48.227,-23.224,-5.023,-22.644,-5.023,-22.644C-5.023,-22.644,14.823,34.724,14.823,34.724Z; M14.823,34.724C14.823,34.724,-21.603,32.428,-21.603,32.428C-21.603,32.428,-24.477,-34.724,-24.477,-34.724C-24.477,-34.724,24.477,-32.894,24.477,-32.894C24.477,-32.894,14.823,34.724,14.823,34.724Z; M14.823,34.724C14.823,34.724,-21.603,32.428,-21.603,32.428C-21.603,32.428,-24.477,-34.724,-24.477,-34.724C-24.477,-34.724,24.477,-32.894,24.477,-32.894C24.477,-32.894,14.823,34.724,14.823,34.724Z; M14.823,34.724C14.823,34.724,-21.603,32.428,-21.603,32.428C-21.603,32.428,-48.227,-23.224,-48.227,-23.224C-48.227,-23.224,-5.023,-22.644,-5.023,-22.644C-5.023,-22.644,14.823,34.724,14.823,34.724Z; M14.823,34.724C14.823,34.724,-21.603,32.428,-21.603,32.428C-21.603,32.428,-24.477,-34.724,-24.477,-34.724C-24.477,-34.724,24.477,-32.894,24.477,-32.894C24.477,-32.894,14.823,34.724,14.823,34.724Z; M14.823,34.724C14.823,34.724,-21.603,32.428,-21.603,32.428C-21.603,32.428,-24.477,-34.724,-24.477,-34.724C-24.477,-34.724,24.477,-32.894,24.477,-32.894C24.477,-32.894,14.823,34.724,14.823,34.724Z; M14.823,34.724C14.823,34.724,-21.603,32.428,-21.603,32.428C-21.603,32.428,-48.227,-23.224,-48.227,-23.224C-48.227,-23.224,-5.023,-22.644,-5.023,-22.644C-5.023,-22.644,14.823,34.724,14.823,34.724Z; M14.823,34.724C14.823,34.724,-21.603,32.428,-21.603,32.428C-21.603,32.428,-24.477,-34.724,-24.477,-34.724C-24.477,-34.724,24.477,-32.894,24.477,-32.894C24.477,-32.894,14.823,34.724,14.823,34.724Z; M14.823,34.724C14.823,34.724,-21.603,32.428,-21.603,32.428C-21.603,32.428,-24.477,-34.724,-24.477,-34.724C-24.477,-34.724,24.477,-32.894,24.477,-32.894C24.477,-32.894,14.823,34.724,14.823,34.724Z" keyTimes="0; 0.139442; 0.239044; 0.338645; 0.418327; 0.517928; 0.61753; 0.697211; 0.796813; 0.896414; 1" keySplines="0 0 1 1; 0.333 0 0.667 1; 0.333 0 0.667 1; 0.333 0 0.667 1; 0.333 0 0.667 1; 0.333 0 0.667 1; 0.333 0 0.667 1; 0.333 0 0.667 1; 0.333 0 0.667 1; 0 0 1 1" fill="freeze" /></path></g><g id="i4" transform="matrix(1,0,0,1,529.686,818.695)"><path d="M-6.896,33.809C-6.896,33.809,1.618,25.335,1.618,25.335C1.618,25.335,6.896,-16.537,6.896,-16.537C6.896,-16.537,2.758,-33.809,2.758,-33.809C2.758,-33.809,-6.896,33.809,-6.896,33.809Z" fill="#a22b00"><animate repeatCount="indefinite" attributeName="d" dur="4.183s" begin="0s" calcMode="spline" values="M-6.896,33.809C-6.896,33.809,1.618,25.335,1.618,25.335C1.618,25.335,6.896,-16.537,6.896,-16.537C6.896,-16.537,2.758,-33.809,2.758,-33.809C2.758,-33.809,-6.896,33.809,-6.896,33.809Z; M-6.896,33.809C-6.896,33.809,1.618,25.335,1.618,25.335C1.618,25.335,6.896,-16.537,6.896,-16.537C6.896,-16.537,2.758,-33.809,2.758,-33.809C2.758,-33.809,-6.896,33.809,-6.896,33.809Z; M-6.896,33.809C-6.896,33.809,1.618,25.335,1.618,25.335C1.618,25.335,-11.354,-23.287,-11.354,-23.287C-11.354,-23.287,-26.742,-23.559,-26.742,-23.559C-26.742,-23.559,-6.896,33.809,-6.896,33.809Z; M-6.896,33.809C-6.896,33.809,1.618,25.335,1.618,25.335C1.618,25.335,6.896,-16.537,6.896,-16.537C6.896,-16.537,2.758,-33.809,2.758,-33.809C2.758,-33.809,-6.896,33.809,-6.896,33.809Z; M-6.896,33.809C-6.896,33.809,1.618,25.335,1.618,25.335C1.618,25.335,6.896,-16.537,6.896,-16.537C6.896,-16.537,2.758,-33.809,2.758,-33.809C2.758,-33.809,-6.896,33.809,-6.896,33.809Z; M-6.896,33.809C-6.896,33.809,1.618,25.335,1.618,25.335C1.618,25.335,-11.354,-23.287,-11.354,-23.287C-11.354,-23.287,-26.742,-23.559,-26.742,-23.559C-26.742,-23.559,-6.896,33.809,-6.896,33.809Z; M-6.896,33.809C-6.896,33.809,1.618,25.335,1.618,25.335C1.618,25.335,6.896,-16.537,6.896,-16.537C6.896,-16.537,2.758,-33.809,2.758,-33.809C2.758,-33.809,-6.896,33.809,-6.896,33.809Z; M-6.896,33.809C-6.896,33.809,1.618,25.335,1.618,25.335C1.618,25.335,6.896,-16.537,6.896,-16.537C6.896,-16.537,2.758,-33.809,2.758,-33.809C2.758,-33.809,-6.896,33.809,-6.896,33.809Z; M-6.896,33.809C-6.896,33.809,1.618,25.335,1.618,25.335C1.618,25.335,-11.354,-23.287,-11.354,-23.287C-11.354,-23.287,-26.742,-23.559,-26.742,-23.559C-26.742,-23.559,-6.896,33.809,-6.896,33.809Z; M-6.896,33.809C-6.896,33.809,1.618,25.335,1.618,25.335C1.618,25.335,6.896,-16.537,6.896,-16.537C6.896,-16.537,2.758,-33.809,2.758,-33.809C2.758,-33.809,-6.896,33.809,-6.896,33.809Z; M-6.896,33.809C-6.896,33.809,1.618,25.335,1.618,25.335C1.618,25.335,6.896,-16.537,6.896,-16.537C6.896,-16.537,2.758,-33.809,2.758,-33.809C2.758,-33.809,-6.896,33.809,-6.896,33.809Z" keyTimes="0; 0.139442; 0.239044; 0.338645; 0.418327; 0.517928; 0.61753; 0.697211; 0.796813; 0.896414; 1" keySplines="0 0 1 1; 0.333 0 0.667 1; 0.333 0 0.667 1; 0.333 0 0.667 1; 0.333 0 0.667 1; 0.333 0 0.667 1; 0.333 0 0.667 1; 0.333 0 0.667 1; 0.333 0 0.667 1; 0 0 1 1" fill="freeze" /></path></g></g></g></g><g transform="matrix(1,0,0,1,697.78,747.12)" id="i7"><g id="i4"><path d="M-40.704,-74.902C-40.704,-74.902,33.95,-29.29,33.95,-29.29C33.95,-29.29,40.704,74.902,40.704,74.902" stroke-linejoin="round" stroke-linecap="round" stroke-width="9" stroke="#000000"><animate repeatCount="indefinite" attributeName="d" dur="4.183s" begin="0s" calcMode="spline" values="M-40.704,-74.902C-40.704,-74.902,33.95,-29.29,33.95,-29.29C33.95,-29.29,40.704,74.902,40.704,74.902; M-40.704,-74.902C-40.704,-74.902,33.95,-29.29,33.95,-29.29C33.95,-29.29,40.704,74.902,40.704,74.902; M-40.704,-74.902C-40.704,-74.902,46.45,-60.79,46.45,-60.79C46.45,-60.79,45.204,45.402,45.204,45.402; M-40.704,-74.902C-40.704,-74.902,33.95,-29.29,33.95,-29.29C33.95,-29.29,40.704,74.902,40.704,74.902; M-40.704,-74.902C-40.704,-74.902,46.45,-60.79,46.45,-60.79C46.45,-60.79,45.204,45.402,45.204,45.402; M-40.704,-74.902C-40.704,-74.902,33.95,-29.29,33.95,-29.29C33.95,-29.29,40.704,74.902,40.704,74.902; M-40.704,-74.902C-40.704,-74.902,33.95,-29.29,33.95,-29.29C33.95,-29.29,40.704,74.902,40.704,74.902; M-40.704,-74.902C-40.704,-74.902,46.45,-60.79,46.45,-60.79C46.45,-60.79,45.204,45.402,45.204,45.402; M-40.704,-74.902C-40.704,-74.902,33.95,-29.29,33.95,-29.29C33.95,-29.29,40.704,74.902,40.704,74.902; M-40.704,-74.902C-40.704,-74.902,46.45,-60.79,46.45,-60.79C46.45,-60.79,45.204,45.402,45.204,45.402; M-40.704,-74.902C-40.704,-74.902,33.95,-29.29,33.95,-29.29C33.95,-29.29,40.704,74.902,40.704,74.902; M-40.704,-74.902C-40.704,-74.902,33.95,-29.29,33.95,-29.29C33.95,-29.29,40.704,74.902,40.704,74.902; M-40.704,-74.902C-40.704,-74.902,46.45,-60.79,46.45,-60.79C46.45,-60.79,45.204,45.402,45.204,45.402; M-40.704,-74.902C-40.704,-74.902,33.95,-29.29,33.95,-29.29C33.95,-29.29,40.704,74.902,40.704,74.902; M-40.704,-74.902C-40.704,-74.902,46.45,-60.79,46.45,-60.79C46.45,-60.79,45.204,45.402,45.204,45.402; M-40.704,-74.902C-40.704,-74.902,33.95,-29.29,33.95,-29.29C33.95,-29.29,40.704,74.902,40.704,74.902; M-40.704,-74.902C-40.704,-74.902,33.95,-29.29,33.95,-29.29C33.95,-29.29,40.704,74.902,40.704,74.902" keyTimes="0; 0.119522; 0.167331; 0.219124; 0.266932; 0.318725; 0.398406; 0.446215; 0.498008; 0.545817; 0.59761; 0.677291; 0.7251; 0.776892; 0.824701; 0.876494; 1" keySplines="0 0 1 1; 0.333 0 0.667 1; 0.333 0 0.667 1; 0.333 0 0.667 1; 0.333 0 0.667 1; 0.333 0 0.667 1; 0.333 0 0.667 1; 0.333 0 0.667 1; 0.333 0 0.667 1; 0.333 0 0.667 1; 0.333 0 0.667 1; 0.333 0 0.667 1; 0.333 0 0.667 1; 0.333 0 0.667 1; 0.333 0 0.667 1; 0 0 1 1" fill="freeze" /></path></g></g><g id="i7"><g transform="translate(738.976,822.632)"><animateTransform repeatCount="indefinite" type="translate" attributeName="transform" dur="4.183s" begin="0s" calcMode="spline" values="738.976 822.632; 738.976 822.632; 744.476 794.382; 738.976 822.632; 744.476 794.382; 738.976 822.632; 738.976 822.632; 744.476 794.382; 738.976 822.632; 744.476 794.382; 738.976 822.632; 738.976 822.632; 744.476 794.382; 738.976 822.632; 744.476 794.382; 738.976 822.632; 738.976 822.632" keyTimes="0; 0.119522; 0.167331; 0.219124; 0.266932; 0.318725; 0.398406; 0.446215; 0.498008; 0.545817; 0.59761; 0.677291; 0.7251; 0.776892; 0.824701; 0.876494; 1" keySplines="0 0 1 1; 0.333 0 0.667 1; 0.333 0 0.667 1; 0.333 0 0.667 1; 0.333 0 0.667 1; 0 0 1 1; 0.333 0 0.667 1; 0.333 0 0.667 1; 0.333 0 0.667 1; 0.333 0 0.667 1; 0 0 1 1; 0.333 0 0.667 1; 0.333 0 0.667 1; 0.333 0 0.667 1; 0.333 0 0.667 1; 0 0 1 1" fill="freeze" /><g transform="rotate(0)"><animateTransform repeatCount="indefinite" type="rotate" attributeName="transform" dur="4.183s" begin="0s" calcMode="spline" values="0; 0; -29; 0; -29; 0; 0; -29; 0; -29; 0; 0; -29; 0; -29; 0; 0" keyTimes="0; 0.119522; 0.167331; 0.219124; 0.270916; 0.318725; 0.398406; 0.446215; 0.498008; 0.549801; 0.59761; 0.677291; 0.7251; 0.776892; 0.828685; 0.876494; 1" keySplines="0 0 1 1; 0.333 0 0.667 1; 0.333 0 0.667 1; 0.333 0 0.667 1; 0.333 0 0.667 1; 0.167 0 0.667 1; 0.333 0 0.667 1; 0.333 0 0.667 1; 0.333 0 0.667 1; 0.333 0 0.667 1; 0.167 0 0.667 1; 0.333 0 0.667 1; 0.333 0 0.667 1; 0.333 0 0.667 1; 0.333 0 0.667 1; 0 0 1 1" fill="freeze" /><g transform="translate(26.375,3.75)"><g id="i4"><path fill="#e95420" d="M-33.596,-6.074C-30.718,-22.202,-0.858,-16.376,8.206,-13.544C17.27,-10.712,25.436,-7.148,30.346,-3.938C35.256,-0.728,35.334,4.632,28.788,7.694C20.716,11.47,0.466,8.12,0.466,8.12C10.948,12.71,0.446,20.064,-17.944,12.84C-23.932,10.488,-35.086,2.277,-33.596,-6.074Z" /></g></g></g></g></g><g transform="matrix(1,0,0,1,419.75,595.75)" id="i12"><g id="i4"><path fill="#6e6e6e" d="M0,-1.638C0.905,-1.638,1.638,-0.905,1.638,0C1.638,0.905,0.905,1.638,0,1.638C-0.905,1.638,-1.638,0.905,-1.638,0C-1.638,-0.905,-0.905,-1.638,0,-1.638Z" /></g></g><g transform="matrix(1,0,0,1,434.777,607.556)" id="i12"><g id="i4"><path fill="#6e6e6e" d="M1.639,0C1.639,0.904,0.905,1.638,0.001,1.638C-0.903,1.638,-1.639,0.904,-1.639,0C-1.639,-0.906,-0.905,-1.638,0.001,-1.638C0.907,-1.638,1.639,-0.906,1.639,0Z" /></g></g><g transform="matrix(1,0,0,1,436.611,801.366)" id="i12"><g id="i4"><path fill="#6e6e6e" d="M1.639,0C1.639,0.906,0.905,1.638,0.001,1.638C-0.905,1.638,-1.639,0.904,-1.639,0C-1.639,-0.906,-0.905,-1.638,0.001,-1.638C0.905,-1.64,1.639,-0.906,1.639,0Z" /></g></g><g transform="matrix(1,0,0,1,451.639,813.172)" id="i12"><g id="i4"><path fill="#6e6e6e" d="M1.639,0C1.639,0.906,0.905,1.638,-0.001,1.638C-0.905,1.638,-1.639,0.904,-1.639,0C-1.639,-0.906,-0.905,-1.638,-0.001,-1.638C0.905,-1.64,1.639,-0.906,1.639,0Z" /></g></g><g transform="matrix(1,0,0,1,0,0)" id="i10"><g id="i4" transform="matrix(1,0,0,1,0,0)"><g id="i4" transform="matrix(1,0,0,1,738.744,428.121)"><path fill="#e95420" d="M112.908,35.179C112.908,35.179,81.518,30.943,81.518,30.943C81.518,30.943,102.278,-124.673,102.278,-124.673C102.278,-124.673,41.716,-132.845,41.716,-132.845C41.716,-132.845,-105.19,2.407,-105.19,2.407C-105.19,2.407,-112.908,60.265,-112.908,60.265C-112.908,60.265,13.676,77.349,13.676,77.349C13.676,77.349,7.364,124.673,7.364,124.673C7.364,124.673,67.926,132.845,67.926,132.845C67.926,132.845,74.238,85.521,74.238,85.521C74.238,85.521,105.628,89.757,105.628,89.757C105.628,89.757,112.908,35.179,112.908,35.179C112.908,35.179,112.908,35.179,112.908,35.179ZM-45.928,13.743C-45.928,13.743,31.588,-56.913,31.588,-56.913C31.588,-56.913,20.958,22.769,20.958,22.769C20.958,22.769,-45.928,13.743,-45.928,13.743Z" /></g><g id="i4" transform="matrix(1,0,0,1,825.379,318.996)"><g id="i4"><path fill="#6e6e6e" d="M0,-3.001C1.657,-3.001,3.001,-1.657,3.001,0C3.001,1.657,1.657,3.001,0,3.001C-1.657,3.001,-3.001,1.657,-3.001,0C-3.001,-1.657,-1.657,-3.001,0,-3.001Z" /></g></g><g id="i4" transform="matrix(1,0,0,1,818.436,360.052)"><g id="i4"><path fill="#6e6e6e" d="M0,-3.001C1.657,-3.001,3.001,-1.657,3.001,0C3.001,1.657,1.657,3.001,0,3.001C-1.657,3.001,-3.001,1.657,-3.001,0C-3.001,-1.657,-1.657,-3.001,0,-3.001Z" /></g></g><g id="i4" transform="matrix(1,0,0,1,811.883,399.374)"><g id="i4"><path fill="#6e6e6e" d="M0,-3.001C1.657,-3.001,3.001,-1.657,3.001,0C3.001,1.657,1.657,3.001,0,3.001C-1.657,3.001,-3.001,1.657,-3.001,0C-3.001,-1.657,-1.657,-3.001,0,-3.001Z" /></g></g><g id="i4" transform="matrix(1,0,0,1,804.612,439.492)"><g id="i4"><path fill="#6e6e6e" d="M0,-3.001C1.657,-3.001,3.001,-1.657,3.001,0C3.001,1.657,1.657,3.001,0,3.001C-1.657,3.001,-3.001,1.657,-3.001,0C-3.001,-1.657,-1.657,-3.001,0,-3.001Z" /></g></g><g id="i4" transform="matrix(1,0,0,1,797.194,479.723)"><g id="i4"><path fill="#6e6e6e" d="M0,-3.001C1.657,-3.001,3.001,-1.657,3.001,0C3.001,1.657,1.657,3.001,0,3.001C-1.657,3.001,-3.001,1.657,-3.001,0C-3.001,-1.657,-1.657,-3.001,0,-3.001Z" /></g></g><g id="i4" transform="matrix(1,0,0,1,789.628,520.524)"><g id="i4"><path fill="#6e6e6e" d="M0,-3.001C1.657,-3.001,3.001,-1.657,3.001,0C3.001,1.657,1.657,3.001,0,3.001C-1.657,3.001,-3.001,1.657,-3.001,0C-3.001,-1.657,-1.657,-3.001,0,-3.001Z" /></g></g></g><g id="i4" transform="matrix(1,0,0,1,812.482,430.674)"><g id="i4"><path fill="#6e6e6e" d="M-24.13,127.82C-24.13,127.82,20.965,-128.247,20.965,-128.247C20.965,-128.247,24.13,-127.82,24.13,-127.82C24.13,-127.82,-20.962,128.247,-20.962,128.247C-20.962,128.247,-24.13,127.82,-24.13,127.82C-24.13,127.82,-24.13,127.82,-24.13,127.82Z" /></g></g></g><g transform="matrix(1,0,0,1,0,0)" id="i15"><g id="i4" transform="matrix(1,0,0,1,457.555,838.556)"><path fill="#6e6e6e" d="M0.191,9.4C0.191,9.4,5.611,0,5.611,0C5.611,0,0.191,-9.4,0.191,-9.4C0.191,-9.4,-5.611,-9.4,-5.611,-9.4C-5.611,-9.4,-2.333,0,-2.333,0C-2.333,0,-5.611,9.4,-5.611,9.4C-5.611,9.4,0.191,9.4,0.191,9.4Z" /></g><g id="i4" transform="matrix(1,0,0,1,446.496,838.692)"><path fill="#6e6e6e" d="M5.83,4.764C3.13,4.764,0.93,2.564,0.93,-0.136C0.93,-2.836,3.13,-5.016,5.83,-5.016C5.83,-5.016,-3.386,-6.86,-3.386,-6.86C-3.386,-6.86,-5.83,0.582,-5.83,0.582C-5.83,0.582,-1.718,6.86,-1.718,6.86C-1.718,6.86,5.83,4.764,5.83,4.764Z" /></g><g id="i4" transform="matrix(1,0,0,1,447.684,838.556)"><path fill="#e95420" d="M5.43,-9.4C5.43,-9.4,-5.43,-9.4,-5.43,-9.4C-5.43,-9.4,-10.85,0,-10.85,0C-10.85,0,-5.43,9.4,-5.43,9.4C-5.43,9.4,5.43,9.4,5.43,9.4C5.43,9.4,10.85,0,10.85,0C10.85,0,5.43,-9.4,5.43,-9.4ZM0.01,4.9C-2.69,4.9,-4.89,2.7,-4.89,0C-4.89,-2.7,-2.69,-4.88,0.01,-4.88C2.71,-4.88,4.89,-2.7,4.89,0C4.89,2.7,2.71,4.9,0.01,4.9Z" /></g></g><g transform="matrix(1,0,0,1,0,0)" id="i15"><g id="i4" transform="matrix(1,0,0,1,835.921,821.549)"><path fill="#e95420" d="M-0.143,6.981C-0.143,6.981,-4.167,-0.001,-4.167,-0.001C-4.167,-0.001,-0.143,-6.981,-0.143,-6.981C-0.143,-6.981,4.167,-6.981,4.167,-6.981C4.167,-6.981,1.733,0.001,1.733,0.001C1.733,0.001,4.167,6.981,4.167,6.981C4.167,6.981,-0.143,6.981,-0.143,6.981Z" /></g><g id="i4" transform="matrix(1,0,0,1,844.134,821.649)"><path fill="#e95420" d="M-4.33,3.539C-2.324,3.539,-0.69,1.905,-0.69,-0.101C-0.69,-2.105,-2.324,-3.725,-4.33,-3.725C-4.33,-3.725,2.514,-5.095,2.514,-5.095C2.514,-5.095,4.33,0.433,4.33,0.433C4.33,0.433,1.276,5.095,1.276,5.095C1.276,5.095,-4.33,3.539,-4.33,3.539C-4.33,3.539,-4.33,3.539,-4.33,3.539Z" /></g><g id="i4" transform="matrix(1,0,0,1,843.253,821.549)"><path fill="#6e6e6e" d="M-4.033,-6.981C-4.033,-6.981,4.033,-6.981,4.033,-6.981C4.033,-6.981,8.059,-0.001,8.059,-0.001C8.059,-0.001,4.033,6.981,4.033,6.981C4.033,6.981,-4.033,6.981,-4.033,6.981C-4.033,6.981,-8.059,-0.001,-8.059,-0.001C-8.059,-0.001,-4.033,-6.981,-4.033,-6.981ZM-0.007,3.639C1.999,3.639,3.633,2.005,3.633,-0.001C3.633,-2.005,1.999,-3.625,-0.007,-3.625C-2.013,-3.625,-3.631,-2.005,-3.631,-0.001C-3.633,2.005,-2.013,3.639,-0.007,3.639Z" /></g></g><g transform="matrix(1,0,0,1,0,0)" id="i6"><g id="i4" transform="matrix(1,0,0,1,690.414,833.518)"><path fill="#6e6e6e" d="M-4.518,4.278C-4.518,4.278,4.518,4.278,4.518,4.278C6.87,4.278,8.796,2.354,8.796,0C8.796,-2.352,6.87,-4.278,4.518,-4.278C4.518,-4.278,-4.518,-4.278,-4.518,-4.278C-6.872,-4.278,-8.796,-2.352,-8.796,0C-8.796,2.354,-6.872,4.278,-4.518,4.278Z" /></g><g id="i4" transform="matrix(1,0,0,1,679.503,833.518)"><path fill="#e95420" d="M-8.043,-3.792C-5.811,-8.524,-0.403,-10.662,4.041,-8.568C8.483,-6.474,10.275,-0.94,8.045,3.792C5.815,8.524,0.405,10.662,-4.037,8.568C-8.483,6.474,-10.275,0.94,-8.043,-3.792C-8.043,-3.792,-8.043,-3.792,-8.043,-3.792Z" /></g><g id="i4" transform="matrix(1,0,0,1,679.552,833.495)"><g id="i4"><path fill="#6e6e6e" d="M-3.069,9.722C-3.069,9.722,-5.548,8.553,-5.548,8.553C-5.548,8.553,3.069,-9.722,3.069,-9.722C3.069,-9.722,5.548,-8.553,5.548,-8.553C5.548,-8.553,-3.069,9.722,-3.069,9.722Z" /></g></g></g><g transform="matrix(1,0,0,1,-7692,-7692.11)" id="i7" /></svg>