<?xml version="1.0" encoding="UTF-8"?>
<svg id="Layer_1" xmlns="http://www.w3.org/2000/svg" version="1.1" viewBox="0 0 1080 1080">
  <!-- Generator: Adobe Illustrator 30.2.0, SVG Export Plug-In . SVG Version: 2.1.1 Build 105)  -->
  <defs>
    <style>
      .st0 {
        fill: #e95420;
      }
    </style>
  </defs>
  <g>
    <path class="st0" d="M738.34,428.84c-4.25-8.91-10.45-16.73-18.66-22.46-13.89-9.69-28.82-12.79-45.43-9.52-21.71,4.27-39,21.65-44.67,42.73-21.79-3.61-13.72-2.39-34.32,2.84-9.17-17.97-26.1-30.12-46.23-33.07-10.37-1.52-20.72.04-30.58,3.7-19.79,8.54-32.19,23.44-37.33,44.63l-49.61.02c-.43,0-1.25-.08-1.23-.36l.03-.99,5.65-59.24,4.18-44.28-43.43-16.41-49.23-18.8-23.64,52.36c-.4.91-.61,1.69-.83,2.58l15.15,51.71,9.07,30.47c.04.16.34.62.44.6l.48-.11,4.69-4.12,15.37-13.5,35.86,17.92,16.68,33.55,5.7,11.31,10.83,48.49,14.45,61.88,28.99,22.2,82.72,44.08-96.59-36.9,22.31,42.75,41.16,43.9,63.31,67.68,16.73,18.01,33.94-24.92,24-17.75,7.17-111.54,12.53-19.86,8.49-13.21,8.14-12.87,12.35-102.75-22.18,38.69-9.98,42.01-8.14,35.64-10.71,46.24-87.6,10.86-17.77-27.4-22.96-34.86-28.49-43.16-17.96-27.3-49.73-38.91-13.79-10.69c-.76-.5-1.28-1.59-1.18-2.6l2.41-25.31h51.43c.42,10.69,3.85,20.3,9.47,29.16,3.72,5.88,8.48,10.47,13.76,15.07,22.94,18.13,55.76,17.14,77.37-2.49,16.98-15.44,23.52-35.58,19.05-58.42,16.06-4.47,10.35-4.67,27.11-2.33.31.23.85.62.85,1.49.12,31.17,27.68,58.76,61.28,56.9,15.53-.86,29.16-7.61,39.65-18.97,16.02-17.36,19.69-42.92,9.47-64.35ZM540.84,514.65c-25.03,0-45.32-20.29-45.32-45.32s20.29-45.31,45.32-45.31,45.31,20.28,45.31,45.31-20.28,45.32-45.31,45.32ZM685.98,496.95c-23.77,0-43.05-19.28-43.05-43.05s19.28-43.04,43.05-43.04,43.05,19.27,43.05,43.04-19.28,43.05-43.05,43.05Z"/>
    <polygon class="st0" points="624.25 304.99 609.34 307.47 505.94 298.46 466.67 270.46 419.45 236.69 458.17 189.1 488.25 182.86 570.45 165.49 619.18 176.13 677.18 188.65 713.34 254.45 672.46 291.2 663.78 298.99 624.25 304.99"/>
    <path class="st0" d="M548.42,892.89l-46.53-17.86-28.77-10.97-32.17-12.31-30.09-11.56c-8.61-3.31-16.85-6.25-25.33-9.96l30.11-26.87,18.72-16.75,35.98,19.27,32.96,17.54,30.91.83,70.64,1.6,44.5,81.88-61.61.08-39.35-14.92Z"/>
    <path class="st0" d="M595.56,813.59c-4.56.2-8.73.08-13.42,0l-75.56-1.44-70.11-37.55-4.33-76.47-4.23-80.11-1.51-29.81,7.67,14.69,38.3,72.7c2.51,4.77,4.27,10.31,7.96,14.3l46.23,49.86,68.99,73.84Z"/>
    <polygon class="st0" points="708.91 876.39 670.04 914.51 654.25 887.01 617.13 821.16 677.69 776.75 679.99 745.23 712.92 761.1 758 783.07 747.8 810.82 740.47 830.37 731.83 853.77 708.91 876.39"/>
    <polygon class="st0" points="460.6 330.75 444.22 342.24 349.01 306.26 347.97 295.21 345.44 265.6 399.49 236.46 473.82 289.34 495.86 305.19 460.6 330.75"/>
    <polygon class="st0" points="374.16 825.07 353.86 817.02 325.98 806.26 356.74 769.66 420.59 694.75 425.48 779.34 390.23 810.79 374.16 825.07"/>
    <polygon class="st0" points="424.54 548.78 424.87 548.64 425.38 550.57 424.54 548.78"/>
    <polygon class="st0" points="433.02 579.38 406.19 585.98 375.07 560.93 356.1 545.7 348.95 522.08 336.86 480.21 354.59 464.13 369.48 450.83 396.08 463.74 416.92 505.76 409.46 523.91 423.21 545.97 423.21 545.98 424.87 548.64 424.45 548.59 424.36 548.4 408.07 540.96 406.75 540.53 406.42 540.21 404.04 539.12 403.89 539.06 385.55 531.02 392.97 505.28 398.13 495.96 392.95 489.4 372.13 474.45 357.64 490.47 370.82 531.12 396.25 547.42 402.01 558.65 409.22 555.5 416.69 560.14 430.14 568.52 433.02 579.38"/>
    <polygon class="st0" points="712.36 391.57 683.71 335.2 670.09 308.21 702.65 278.52 710.32 289.48 723.7 308.64 712.36 391.57"/>
  </g>
  <path class="st0" d="M427.42,553.6"/>
  <polygon class="st0" points="392.97 505.28 385.55 531.02 370.8 499.48 374.91 489.42 392.97 505.28"/>
  <polygon class="st0" points="409.22 555.5 416.69 560.14 394.73 562.75 396.25 547.42 409.22 555.5"/>
  <polygon class="st0" points="404.49 538.4 406.42 540.21 404.04 539.12 403.81 539.15 403.89 539.06 404.49 538.4"/>
  <polygon class="st0" points="424.36 548.4 408.07 540.96 423.21 545.97 423.21 545.98 424.36 548.4"/>
  <polygon class="st0" points="406.42 540.21 408.07 540.96 406.75 540.53 406.42 540.21"/>
  <polygon class="st0" points="425.38 550.57 424.54 548.78 424.45 548.59 424.36 548.4 424.87 548.64 425.38 550.57"/>
</svg>