<?xml version="1.0" encoding="utf-8"?>
<!-- Generator: Adobe Illustrator 24.2.3, SVG Export Plug-In . SVG Version: 6.00 Build 0)  -->
<svg version="1.1" id="Layer_1" xmlns="http://www.w3.org/2000/svg" xmlns:xlink="http://www.w3.org/1999/xlink" x="0px" y="0px"
	 viewBox="0 0 1080 1080" style="enable-background:new 0 0 1080 1080;" xml:space="preserve">
<style type="text/css">
	.st0{fill:#E95420;}
</style>
<path class="st0" d="M819.4,383.2c-5.9-12.6-14.9-23.5-26.2-31.6c-18.5-13.3-41.7-18.2-64-13.4c-30.7,6.6-55,29.9-63,60.2
	c-30.7-5.1-19.3-3.4-48.4,3.9c-20.2-39.5-66.9-57.3-108.3-41.3c-26.9,10.9-46.7,34.5-52.7,62.9h-69.9c-0.6,0-1.7,0-1.7-0.6V422
	l8-83.5l5.8-62.5l-61.2-23.1l-69.4-26.5L235,300.3c-0.6,1.2-0.9,2.4-1.1,3.7l21.4,72.9l12.7,42.9c0,0.3,0.6,1,0.7,0.8h0.6l6.6-5.9
	l21.7-19l50.6,25.4l23.4,47.2l8.2,15.9l15.2,68.4l20.3,87.3l40.9,31.3l116.6,62l-136.2-52l31.6,60.3l57.9,61.9l89.2,95.4l23.7,25.4
	l47.8-35.2l33.8-25l10.2-157.2l17.6-28.1l12-18.6l11.4-18.2l17.5-144.8L758,551.7l-14.1,59.2l-11.4,50.2l-15.1,65.3l-123.5,15.2
	L568.8,703l-32.4-49.1L496.2,593l-25.4-38.5l-69.9-54.8l-19.5-15.1c-1.1-0.9-1.8-2.2-1.7-3.7l3.4-35.7h72.5
	c0.7,14.7,5.3,28.9,13.4,41.2c24.8,39.6,77,51.5,116.6,26.7c4.2-2.6,8.2-5.6,11.8-9c23.4-20.5,33.7-52.2,26.8-82.5
	c22.7-6.2,14.7-6.5,38.3-3.2c0.6,0.2,0.9,0.9,1.1,2.1c1.1,45.5,38.9,81.4,84.3,80.3c0.7,0,1.4,0,2.1-0.1c45.1-2.4,79.7-40.9,77.4-86
	c-0.6-10.9-3.3-21.6-8.1-31.5V383.2z M540.9,504.2c-35.3,0-63.9-28.6-63.9-63.9s28.6-63.9,63.9-63.9s63.9,28.6,63.9,63.9
	S576.2,504.2,540.9,504.2 M745.6,479.4c-33.5,0-60.6-27.1-60.6-60.6s27.1-60.6,60.6-60.6c33.5,0,60.6,27.1,60.6,60.6
	S779.1,479.4,745.6,479.4 M658.6,208.7l-21.1,3.5l-145.8-12.7L436.5,160l-66.7-47.7l54.7-67.1l42.4-8.7L582.8,12l68.7,14.9
	l81.8,17.8l50.9,92.6l-57.5,51.9l-12.3,11L658.6,208.7z M551.6,1037.5l-65.4-25.2l-40.9-15.5l-45.1-17.2l-42.3-16.2
	c-12.1-4.7-23.8-8.9-35.8-14.1l42.4-37.8l26.5-23.7l50.8,27.2l46.4,24.7l43.7,1.1l99.5,2.3l62.7,115.6h-87L551.6,1037.5z"/>
<path class="st0" d="M618.2,925.7c-6.5,0.3-12.4,0-19,0l-106.4-2l-98.8-53l-6.2-107.9l-5.9-112.8l-2.1-42.2l10.9,20.7l54,102.5
	c3.5,6.8,5.9,14.5,11.3,20.2l65.1,70.4L618.2,925.7z M777.9,1014.3l-54.8,53.7l-22.1-38.8l-52.4-92.8l85.4-62.6l3.2-44.6l46.4,22.4
	l63.6,31l-14.4,39.1l-10.3,27.6l-12.3,33L777.9,1014.3z M427.9,245.1l-23.1,16.1l-134.2-50.6l-1.4-15.6l-3.7-41.7l76.3-41
	l104.8,74.4l31.2,22.4L427.9,245.1z M306,942l-28.6-11.4l-39.3-15.1l43.3-51.6l90.1-105.6l6.9,119.1l-49.8,44.4L306,942z M377,552.4
	l0.6-0.3l0.7,2.8L377,552.4z"/>
<path class="st0" d="M388.9,595.5l-37.8,9.3l-43.8-35.4L280.5,548l-10.2-33.3l-16.9-59.1l25-22.7l21-18.8l37.5,18.2l29.3,59.4
	l-10.4,25.5l19.3,31.2l2.4,3.7h-0.7v-0.3l-23-10.4l-1.8-0.7l-0.6-0.4l-3.4-1.6h-0.1l-25.8-11.4l10.4-36.2l7.2-13.1l-7.3-9.3
	l-29.3-21.1l-20.4,22.7l18.6,57.2l36,23l8,15.8l10.2-4.4l10.6,6.5l18.9,11.8L388.9,595.5z M782.9,330.8l-40.5-79.5l-19.2-38.1
	l45.8-41.9l10.9,15.5l18.9,26.9L782.9,330.8z"/>
<path class="st0" d="M332.5,491.1l-10.4,36.2l-20.9-44.4l5.8-14.2L332.5,491.1z M355.4,561.9l10.6,6.5l-31,3.8l2.3-21.7L355.4,561.9
	z M348.8,537.7l2.7,2.5l-3.4-1.6h-0.3h0.1L348.8,537.7z M376.8,551.8l-23-10.4l21.3,7L376.8,551.8z M351.4,540.3l2.4,1.1l-1.8-0.7
	L351.4,540.3z M378.2,554.9l-1.3-2.5l-0.1-0.3v-0.3l0.7,0.3L378.2,554.9z"/>
</svg>
